<?xml version="1.0" encoding="UTF-8"?>
<svg id="mask-animation" xmlns="http://www.w3.org/2000/svg" xmlns:xlink="http://www.w3.org/1999/xlink" viewBox="0 0 407.68 53.39">
<image xmlns:xlink="http://www.w3.org/1999/xlink" xlink:href="/svg/font2.svg" width="500" height="100" mask="url(#clipmask)"></image>
  <mask id="clipmask" maskUnits="objectBoundingBox">
  <defs>
    <style>
      .cls-1 {
        fill: none;
        stroke: url(#Orange_Yellow);
        stroke-linecap: round;
        stroke-linejoin: round;
        stroke-width: 4px;
      }
    </style>
    <linearGradient id="Orange_Yellow" data-name="Orange, Yellow" x1="0" y1="26.69" x2="407.68" y2="26.69" gradientUnits="userSpaceOnUse">
      <stop offset="0" stop-color="#fff33b"/>
      <stop offset=".04" stop-color="#fee62d"/>
      <stop offset=".12" stop-color="#fdd51b"/>
      <stop offset=".2" stop-color="#fdca0f"/>
      <stop offset=".28" stop-color="#fdc70c"/>
      <stop offset=".67" stop-color="#f3903f"/>
      <stop offset=".89" stop-color="#ed683c"/>
      <stop offset="1" stop-color="#e93e3a"/>
    </linearGradient>
  </defs>
  <path class="cls-1" d="M5.3,33.23s-8.37,12.09,1.56,14.19,25.44,4.44,24.21-3.27S37.79-.34,46.55,5.96s3.72,5.7,3.72,5.7c0,0-5.24,14.48,3,17.88s7.56-9.06,7.56-9.06l-8.43-4.83,26.61-8.73s-24.85,34.89-19.08,41.34S104.91,11.59,94.16,8.48s19.17-6.48,19.17-6.48c0,0-9.42,4.07,0,13.35s21.32-3.33,21.32-3.33c0,0,3.4-11.43-20.39-1.71s-11.79,28.29-11.79,28.29c0,0,22.29-7.92,19.17-11.4s-6,17.79-13.74,19.8-23.91,9.21-19.11-7.98,46.03,2.73,46.03,2.73c0,0-2.28,12.39,8.77,7.5S196.38,.54,198.25,5.96s-34.29,33.91-21.74,41.05,23.84-18.91,23.84-18.91l-10.79,20.1s24.82-30.47,23.37-21-13.94,26.54-4.62,22.68,21.54-20.88,21.54-20.88l7.74-11.64s-23.82,33.12-13.92,29.7,20.54-18.06,20.54-18.06l-9.8,19.2s24.08-29.04,22.11-20.04-6.89,20.04-6.89,20.04c0,0,16.84-25.53,20.91-19.2s-8.71,18.9-3.92,19.2,33.28-31.61,32.41-15.72-16.66,15.72-16.66,15.72l.74-16.95,21.42-1.35s-12.61,20.51-8.12,19.98,30.91-26.86,28.06-27.49-11.28,5.77-11.28,5.77h18.24s-29.8,4.98-17.52,20.16,28.38-30.96,28.38-30.96c0,0-17.19,33.9-12.6,32.52s29.33-33.4,36.18-16.17-21.6,15.81-21.6,15.81l6.05-21.36s20.92,16.63,29.79,1.74-11.06,19.29-11.06,19.29c0,0,26.08-33.19,24.85-19.29s-13.29,19.05-4.92,18.45,16.72-14.29,16.72-14.29"/>
  </mask>
</svg>