<?xml version="1.0" encoding="UTF-8"?>
<svg id="mask-animation" xmlns="http://www.w3.org/2000/svg" xmlns:xlink="http://www.w3.org/1999/xlink" viewBox="0 0 386.86 60.82">
<image xmlns:xlink="http://www.w3.org/1999/xlink" xlink:href="/svg/font.svg" width="500" height="100" mask="url(#clipmask)"></image>
<mask id="clipmask" maskUnits="objectBoundingBox">
  <defs>
    <style>
      .cls-1 {
        fill: none;
        stroke: url(#Orange_Yellow);
        stroke-linecap: round;
        stroke-linejoin: round;
        stroke-width: 5px;
      }
    </style>
    <linearGradient id="Orange_Yellow" data-name="Orange, Yellow" x1="0" y1="30.41" x2="386.86" y2="30.41" gradientUnits="userSpaceOnUse">
      <stop offset="0" stop-color="#fff33b"/>
      <stop offset=".04" stop-color="#fee62d"/>
      <stop offset=".12" stop-color="#fdd51b"/>
      <stop offset=".2" stop-color="#fdca0f"/>
      <stop offset=".28" stop-color="#fdc70c"/>
      <stop offset=".67" stop-color="#f3903f"/>
      <stop offset=".89" stop-color="#ed683c"/>
      <stop offset="1" stop-color="#e93e3a"/>
    </linearGradient>
  </defs>
  <path class="cls-1" d="M46.42,19.24c3.57-1.73-1.41-13.47-14.4-1.09s7.55,28.42-14.5,34.4-13.31-14.79-13.31-14.79l55.68-11.27s0,12.22-5.94,7.09-6.39-11.21-.84-12.64,24.48-8.56,24.48-8.56c0,0-.55,10.55-22.62,38.16-13.67,17.11,9.37,2.15,24.63-8.25,10.89-7.42,14.54-21.5,11.19-29.13-8.95-20.35,15.78-5.3,15.78-5.3,0,0-2.08,27.38,21.93,6.47s-33.08,1.39-32.34,16.4,8.67,9.48,16.77,.64-32.1,43.27-27.12,12.53,50.64,3.24,50.64,3.24c0,0,5.55,8.62,11.4,3.93,2.32-1.86,9.77-9.28,18.05-17.19,12.57-12.01,27.05-25.12,28.33-21.51,2.12,5.99-21.43,18.52-15.87,22.9s-6.87-.46-6.87-.46l2.97,17.26s3.57-.73,8.05-3.3c4.73-2.72,10.47-7.51,14.06-15.7,6.98-15.93-9.3,19.03-9.3,19.03,0,0,27.57-31.66,21.42-17.63s-11.04,16.96-8.1,17.18,12.75-4.6,15.3-7.48,9.6-10.1,9.6-10.1l5.82-9.85-17.82,25.64s10.02,4.3,16.68-6.33,8.02-10.41,8.02-10.41l-12.03,18.97s30.11-33.28,23.96-18.94-12.69,18.94-12.69,18.94c0,0,27.18-26.28,24.9-17.57s-10.41,17.13-8.46,17.04,10.66-.22,14.78-6.83c.52-.83,1.29-1.75,2.25-2.72,6.68-6.75,22.08-15.31,17.41-4.24-5.33,12.65-26.96,20.61-17,7.78s21.01-12.43,21.01-12.43c0,0-11.09,14.61-8.38,19.42,1.59,2.83,10.37-6.7,17.34-15.02,.99-1.18,1.95-2.35,2.84-3.44,3.5-4.31,6.04-7.64,6.04-7.64l-10.14,6.47,14.46,.67-11.25,1.6s-16.29,16.87-4.29,16.7,21.93-17.8,21.93-17.8l5.19-9.71s-17.77,24.3-12.72,28.18,19.98-17.32,19.98-17.32c0,0-13.11,20.67-3.06,16.65s23.37-19.53,6.99-18.66c-16.38,.86,14.37,8.84,17.34,6.67s6.89-5.8,6.89-5.8l-12.03,17.13s22.98-28.21,24.78-16.39-3.72,2.89-3.72,2.89c0,0-11.82,17.63-3.72,14.17s17.58-14.79,17.58-14.79"/>
  </mask>
</svg>