<svg id="Isolation_Mode" data-name="Isolation Mode" xmlns="http://www.w3.org/2000/svg" viewBox="0 0 400.68 51.66">
  <defs>
    <style>
      .cls-1 {
        fill: none;
      }
    </style>
  </defs>
  <path class="cls-1" d="M193.14,26.64c30.23-45.78-10.72,14.02-10.55,17.53s20.81-22.33,24.83-18.49-6.54,19.37-6.54,19.37c0,0-.66,11.16,13.69-4.83,4.29-4.78,6.97-7.92,8.61-9.98,3.84-4.82,2-3.66,2-3.66l6.9-10.26s-22.53,30.42-12.84,30.84,20.44-19.68,20.44-19.68l-13.14,20.19s22.82-25.98,25.61-20.19-8.31,18.61-8.31,18.61c0,0,22.01-26.63,25.41-19.21s-17.08,15.53-9.79,19.8,18.85-12.18,18.85-12.18c0,0,25.7-14.29,17.93-3.68s-14.73-2.08-14.73-2.08c0,0-12.47,24.75,.31,17.94s10.35-7.53,10.35-7.53l-2.52,7.53s3.67,7.18,15.54-7.98c3.33-4.25,5.81-7.64,7.65-10.32,4.73-6.88,5.27-9.06,5.27-9.06l-10.84,8.4h18.12l-19.07,18.96s20.87-8.55,25.55-18.3,6.6-9.06,6.9-12.06-18.06,29.88-15.45,30.36,23.27-21.9,28.05-20.67-24.19,16.65-10.88,21.99c14.1,5.66,19.88-15.79,19.88-15.79l-6.24-5.81,9.36,9.3,9.6-9.06-9.17,20.04s21.22-24.76,23.45-21-9.37,20.01-2.7,21.6,16.02-15.36,16.02-15.36"/>
  <path class="cls-1" d="M43.02,15.84l6.53-6.89s-8.71-10.47-19.46,3.45c-6.72,8.7-1.96,27.55-6.67,31.99-2.82,2.67,31.18-25.43,31.18-25.43,0,0-19.12,18.97-12.77,.36,1.19-3.48,30.42-12.36,30.42-12.36,0,0-28.7,46.91-22.45,44.62,5.51-2.02,55.58-42.11,37.19-44.62S107.82,0,107.82,0c0,0-2.95,27.77,18.78,13.32,12.27-8.16-16.8-10.25-28.23-.9-15.24,12.46-6.6,37.43,20.16,13.17s-39.17,48.08-36.05,11.91,47.84-1.32,47.84-1.32c0,0-3.15,12.66,11.07,10.05,1.25-.23,11.31-7.59,21.47-18,15.25-15.63,33.96-24.51,29.88-23.79-5.82,1.03-16.49,23.94-16.49,23.94h-9.1"/>
  <path class="cls-1" d="M1.36,33.6s-9.58,20.46,22.06,10.79"/>
  <polyline class="cls-1" points="162.86 28.23 176.25 28.38 176.25 28.38"/>
  <path class="cls-1" d="M176.25,28.38s-17.54,25.9,6.34,15.79"/>
</svg>