<?xml version="1.0" encoding="UTF-8"?>
<svg id="base" xmlns="http://www.w3.org/2000/svg" xmlns:xlink="http://www.w3.org/1999/xlink" viewBox="0 0 453.81 83.02">
  <defs>
    <style>
      .cls-1 {
        fill: url(#Orange_Yellow);
      }

      .cls-2 {
        fill: none;
        stroke: #231f20;
        stroke-miterlimit: 10;
      }
    </style>
    <linearGradient id="Orange_Yellow" data-name="Orange, Yellow" x1="13.49" y1="39.5" x2="417.76" y2="39.5" gradientUnits="userSpaceOnUse">
      <stop offset="0" stop-color="#fff33b"/>
      <stop offset=".04" stop-color="#fee62d"/>
      <stop offset=".12" stop-color="#fdd51b"/>
      <stop offset=".2" stop-color="#fdca0f"/>
      <stop offset=".28" stop-color="#fdc70c"/>
      <stop offset=".67" stop-color="#f3903f"/>
      <stop offset=".89" stop-color="#ed683c"/>
      <stop offset="1" stop-color="#e93e3a"/>
    </linearGradient>
  </defs>
  <rect class="cls-2" x=".5" y=".5" width="452.81" height="82.02"/>
  <g>
    <g>
      <path d="M13.49,51.98c0-.76,.1-1.5,.3-2.22,.2-.72,.51-1.37,.93-1.95,.42-.58,.94-1.04,1.56-1.38,.62-.34,1.35-.51,2.19-.51s1.53,.23,2.19,.69c.66,.46,.99,1.13,.99,2.01,0,1.08-.39,1.91-1.17,2.49-.78,.58-1.67,.89-2.67,.93-.2,.56-.33,1.12-.39,1.68-.06,.56-.09,1.12-.09,1.68,0,1.36,.33,2.51,.99,3.45,.66,.94,1.5,1.69,2.52,2.25,1.02,.56,2.15,.97,3.39,1.23,1.24,.26,2.42,.39,3.54,.39,2,0,3.73-.36,5.19-1.08,1.46-.72,2.71-1.69,3.75-2.91,1.04-1.22,1.89-2.61,2.55-4.17s1.18-3.2,1.56-4.92c.38-1.72,.65-3.45,.81-5.19,.16-1.74,.28-3.37,.36-4.89,.12-2.76,.5-5.38,1.14-7.86,.64-2.48,1.59-4.65,2.85-6.51,1.26-1.86,2.84-3.33,4.74-4.41,1.9-1.08,4.17-1.62,6.81-1.62,1.12,0,2.21,.11,3.27,.33,1.06,.22,1.99,.59,2.79,1.11,.8,.52,1.45,1.17,1.95,1.95,.5,.78,.75,1.75,.75,2.91,0,.96-.19,1.77-.57,2.43-.38,.66-.88,1.18-1.5,1.56-.62,.38-1.34,.66-2.16,.84-.82,.18-1.67,.27-2.55,.27,.56-.92,.99-1.82,1.29-2.7,.3-.88,.45-1.88,.45-3,0-1.52-.41-2.73-1.23-3.63-.82-.9-1.89-1.35-3.21-1.35-1.56,0-2.85,.38-3.87,1.14-1.02,.76-1.87,1.79-2.55,3.09-.68,1.3-1.2,2.82-1.56,4.56-.36,1.74-.66,3.58-.9,5.52-.24,1.94-.44,3.93-.6,5.97-.16,2.04-.36,4.04-.6,6-.2,1.72-.66,3.58-1.38,5.58-.72,2-1.82,3.87-3.3,5.61-1.48,1.74-3.41,3.19-5.79,4.35-2.38,1.16-5.33,1.74-8.85,1.74-1.72,0-3.42-.23-5.1-.69-1.68-.46-3.17-1.17-4.47-2.13s-2.35-2.16-3.15-3.6c-.8-1.44-1.2-3.12-1.2-5.04Z"/>
      <path d="M90.29,20.6c-1.76,1.04-3.22,2.45-4.38,4.23-1.16,1.78-2.17,3.78-3.03,6-.86,2.22-1.65,4.61-2.37,7.17-.72,2.56-1.5,5.15-2.34,7.77-.84,2.62-1.82,5.2-2.94,7.74-1.12,2.54-2.5,4.91-4.14,7.11l.12,.12c2-1.2,4.15-2.55,6.45-4.05,2.3-1.5,4.6-3.12,6.9-4.86,2.3-1.74,4.53-3.59,6.69-5.55,2.16-1.96,4.11-4.03,5.85-6.21,1.74-2.18,3.19-4.46,4.35-6.84,1.16-2.38,1.88-4.83,2.16-7.35-.68-.32-1.15-.7-1.41-1.14-.26-.44-.39-1.02-.39-1.74,0-.84,.34-1.53,1.02-2.07,.68-.54,1.42-.81,2.22-.81,.6,0,1.12,.13,1.56,.39,.44,.26,.8,.6,1.08,1.02,.28,.42,.49,.9,.63,1.44,.14,.54,.21,1.07,.21,1.59,0,2-.46,4.01-1.38,6.03-.92,2.02-2.18,4.03-3.78,6.03-1.6,2-3.44,3.96-5.52,5.88-2.08,1.92-4.29,3.78-6.63,5.58-2.34,1.8-4.72,3.51-7.14,5.13-2.42,1.62-4.74,3.12-6.96,4.5-2.22,1.38-4.29,2.63-6.21,3.75-1.92,1.12-3.54,2.06-4.86,2.82l-.54-.42c1.44-2.2,2.62-4.52,3.54-6.96,.92-2.44,1.75-4.93,2.49-7.47,.74-2.54,1.47-5.07,2.19-7.59,.72-2.52,1.59-4.96,2.61-7.32,1.02-2.36,2.27-4.59,3.75-6.69,1.48-2.1,3.34-3.97,5.58-5.61v-.18c-.96,.4-2.22,.82-3.78,1.26-1.56,.44-3.25,.94-5.07,1.5-1.82,.56-3.65,1.21-5.49,1.95-1.84,.74-3.5,1.6-4.98,2.58-1.48,.98-2.69,2.1-3.63,3.36-.94,1.26-1.41,2.71-1.41,4.35,0,1.28,.31,2.37,.93,3.27,.62,.9,1.65,1.35,3.09,1.35,1,0,1.86-.24,2.58-.72,.72-.48,1.32-1.1,1.8-1.86,.48-.76,.83-1.61,1.05-2.55,.22-.94,.33-1.89,.33-2.85h.72c0,1.2-.14,2.35-.42,3.45-.28,1.1-.73,2.06-1.35,2.88-.62,.82-1.41,1.48-2.37,1.98-.96,.5-2.1,.75-3.42,.75-1.84,0-3.37-.49-4.59-1.47-1.22-.98-1.83-2.45-1.83-4.41,0-1.8,.5-3.34,1.5-4.62,1-1.28,2.35-2.41,4.05-3.39,1.7-.98,3.65-1.83,5.85-2.55,2.2-.72,4.49-1.41,6.87-2.07,2.38-.66,4.77-1.31,7.17-1.95,2.4-.64,4.64-1.36,6.72-2.16l.3,.48Z"/>
      <path d="M124.31,15.2c-1.12,.28-2.04,.92-2.76,1.92-.72,1-1.08,2.08-1.08,3.24,0,.52,.03,1.05,.09,1.59,.06,.54,.19,1.03,.39,1.47,1.08-.56,2.28-1.1,3.6-1.62,1.32-.52,2.7-.97,4.14-1.35,1.44-.38,2.9-.69,4.38-.93,1.48-.24,2.9-.36,4.26-.36,3.08,0,5.45,.44,7.11,1.32,1.66,.88,2.49,2.28,2.49,4.2,0,1.4-.43,2.55-1.29,3.45-.86,.9-1.92,1.61-3.18,2.13-1.26,.52-2.59,.88-3.99,1.08-1.4,.2-2.62,.3-3.66,.3-2.76,0-5.2-.42-7.32-1.26-2.12-.84-4.06-2.3-5.82-4.38-1.24,.96-2.48,2.1-3.72,3.42-1.24,1.32-2.36,2.75-3.36,4.29-1,1.54-1.8,3.16-2.4,4.86-.6,1.7-.9,3.39-.9,5.07,0,.92,.09,1.79,.27,2.61,.18,.82,.49,1.53,.93,2.13,.44,.6,1.01,1.08,1.71,1.44,.7,.36,1.55,.54,2.55,.54,.84,0,1.76-.18,2.76-.54,1-.36,1.97-.84,2.91-1.44,.94-.6,1.79-1.27,2.55-2.01,.76-.74,1.32-1.49,1.68-2.25,.44-.88,.85-1.7,1.23-2.46,.38-.76,.82-1.43,1.32-2.01,.5-.58,1.11-1.03,1.83-1.35,.72-.32,1.62-.48,2.7-.48,1.24,0,1.86,.22,1.86,.66,0,.52-.19,1.13-.57,1.83-.38,.7-.81,1.41-1.29,2.13-.48,.72-.95,1.39-1.41,2.01-.46,.62-.77,1.15-.93,1.59-.36,.96-.91,2.06-1.65,3.3-.74,1.24-1.63,2.5-2.67,3.78-1.04,1.28-2.25,2.54-3.63,3.78-1.38,1.24-2.9,2.34-4.56,3.3-1.66,.96-3.47,1.74-5.43,2.34-1.96,.6-4.06,.9-6.3,.9-1.2,0-2.44-.13-3.72-.39-1.28-.26-2.43-.69-3.45-1.29-1.02-.6-1.86-1.39-2.52-2.37-.66-.98-.99-2.17-.99-3.57,0-1.28,.29-2.42,.87-3.42,.58-1,1.55-1.5,2.91-1.5,.76,0,1.46,.22,2.1,.66,.64,.44,.96,1.22,.96,2.34,0,1.28-.72,2.08-2.16,2.4-.04,.28-.09,.56-.15,.84-.06,.28-.09,.58-.09,.9,0,1.04,.19,1.87,.57,2.49,.38,.62,.89,1.09,1.53,1.41,.64,.32,1.37,.53,2.19,.63,.82,.1,1.67,.15,2.55,.15,2.16,0,4.12-.55,5.88-1.65,1.76-1.1,3.36-2.47,4.8-4.11,1.44-1.64,2.75-3.4,3.93-5.28,1.18-1.88,2.27-3.58,3.27-5.1l-.12-.12c-.8,.72-1.67,1.4-2.61,2.04-.94,.64-1.92,1.2-2.94,1.68s-2.08,.87-3.18,1.17c-1.1,.3-2.21,.45-3.33,.45-2.64,0-4.68-.8-6.12-2.4-1.44-1.6-2.16-3.68-2.16-6.24,0-2.24,.45-4.33,1.35-6.27,.9-1.94,2.07-3.72,3.51-5.34,1.44-1.62,3.05-3.09,4.83-4.41,1.78-1.32,3.57-2.48,5.37-3.48-.12-.44-.23-.86-.33-1.26-.1-.4-.15-.9-.15-1.5,0-1.52,.41-2.83,1.23-3.93,.82-1.1,1.93-1.85,3.33-2.25v.48Zm18.78,8.58c0-1.2-.43-2.15-1.29-2.85-.86-.7-2.47-1.05-4.83-1.05-1.12,0-2.36,.16-3.72,.48-1.36,.32-2.73,.75-4.11,1.29s-2.68,1.16-3.9,1.86c-1.22,.7-2.25,1.41-3.09,2.13,1.4,1.68,2.93,2.92,4.59,3.72,1.66,.8,3.61,1.2,5.85,1.2,1.48,0,2.86-.18,4.14-.54,1.28-.36,2.39-.85,3.33-1.47,.94-.62,1.68-1.34,2.22-2.16,.54-.82,.81-1.69,.81-2.61Z"/>
      <path d="M211.96,18.74c-3.04,3.44-5.95,6.95-8.73,10.53-2.78,3.58-5.22,7.11-7.32,10.59s-3.78,6.83-5.04,10.05c-1.26,3.22-1.89,6.21-1.89,8.97,0,1.04,.18,1.78,.54,2.22,.36,.44,.84,.66,1.44,.66,1.16,0,2.68-.64,4.56-1.92,1.88-1.28,3.82-2.94,5.82-4.98,.64-.68,1.31-1.41,2.01-2.19,.7-.78,1.38-1.56,2.04-2.34,.66-.78,1.26-1.51,1.8-2.19,.54-.68,.99-1.24,1.35-1.68l.48,.3c-.92,1.2-1.97,2.55-3.15,4.05-1.18,1.5-2.73,3.21-4.65,5.13-2.04,2.04-4.07,3.74-6.09,5.1-2.02,1.36-4.05,2.04-6.09,2.04-1,0-1.83-.16-2.49-.48-.66-.32-1.18-.75-1.56-1.29-.38-.54-.65-1.15-.81-1.83-.16-.68-.24-1.4-.24-2.16,0-2.44,.4-4.79,1.2-7.05,.8-2.26,1.74-4.41,2.82-6.45h-8.4c-1.64,1.92-3.47,3.98-5.49,6.18-2.02,2.2-4.19,4.23-6.51,6.09-2.32,1.86-4.76,3.41-7.32,4.65-2.56,1.24-5.22,1.86-7.98,1.86-1.2,0-2.35-.14-3.45-.42-1.1-.28-2.09-.71-2.97-1.29-.88-.58-1.58-1.31-2.1-2.19-.52-.88-.78-1.94-.78-3.18,0-1.16,.32-2.22,.96-3.18,.64-.96,1.6-1.44,2.88-1.44,.8,0,1.48,.25,2.04,.75,.56,.5,.84,1.11,.84,1.83,0,1.08-.32,1.86-.96,2.34-.64,.48-1.48,.72-2.52,.72,0,.84,.2,1.6,.6,2.28,.4,.68,.9,1.24,1.5,1.68,.6,.44,1.28,.78,2.04,1.02,.76,.24,1.5,.36,2.22,.36,1.8,0,3.57-.31,5.31-.93,1.74-.62,3.45-1.45,5.13-2.49,1.68-1.04,3.3-2.24,4.86-3.6,1.56-1.36,3.06-2.76,4.5-4.2s2.8-2.89,4.08-4.35c1.28-1.46,2.46-2.79,3.54-3.99,2.2-2.48,4.49-4.93,6.87-7.35,2.38-2.42,4.87-4.7,7.47-6.84,2.6-2.14,5.33-4.06,8.19-5.76,2.86-1.7,5.87-3.03,9.03-3.99l.42,.36Zm-23.64,24.36c2.24-3.96,4.78-7.72,7.62-11.28,2.84-3.56,5.94-6.9,9.3-10.02l-.12-.12c-4.72,2.48-9.07,5.56-13.05,9.24-3.98,3.68-7.93,7.74-11.85,12.18h8.1Z"/>
      <path d="M208.78,52.16c.56-.72,1.37-1.74,2.43-3.06,1.06-1.32,2.27-2.62,3.63-3.9,1.36-1.28,2.82-2.4,4.38-3.36,1.56-.96,3.12-1.44,4.68-1.44,1.32,0,2.32,.37,3,1.11,.68,.74,1.02,1.65,1.02,2.73,0,1.36-.43,2.75-1.29,4.17-.86,1.42-1.81,2.84-2.85,4.26-1.04,1.42-1.99,2.78-2.85,4.08-.86,1.3-1.29,2.51-1.29,3.63,0,.48,.12,.87,.36,1.17,.24,.3,.64,.45,1.2,.45s1.49-.43,2.79-1.29c1.3-.86,3.05-2.45,5.25-4.77,1.72-1.84,3.3-3.63,4.74-5.37,1.44-1.74,2.52-3.05,3.24-3.93l.6,.3c-1.04,1.24-2.32,2.78-3.84,4.62-1.52,1.84-3.14,3.66-4.86,5.46-2.08,2.2-3.85,3.76-5.31,4.68-1.46,.92-2.97,1.38-4.53,1.38s-2.64-.42-3.36-1.26c-.72-.84-1.08-1.8-1.08-2.88,0-1.36,.43-2.76,1.29-4.2,.86-1.44,1.81-2.85,2.85-4.23,1.04-1.38,1.99-2.69,2.85-3.93,.86-1.24,1.29-2.32,1.29-3.24,0-.44-.14-.8-.42-1.08-.28-.28-.7-.42-1.26-.42-.8,0-1.74,.37-2.82,1.11-1.08,.74-2.22,1.7-3.42,2.88-1.2,1.18-2.42,2.52-3.66,4.02s-2.41,3-3.51,4.5c-1.1,1.5-2.09,2.95-2.97,4.35-.88,1.4-1.58,2.6-2.1,3.6l-6.06,.18c2.12-3.52,4.25-7.01,6.39-10.47,2.14-3.46,4.25-7.01,6.33-10.65l6.84-.24-7.8,10.92,.12,.12Z"/>
      <path d="M245.38,41.36c-1.88,2.96-3.5,5.49-4.86,7.59-1.36,2.1-2.47,3.89-3.33,5.37-.86,1.48-1.5,2.69-1.92,3.63-.42,.94-.63,1.71-.63,2.31,0,.48,.09,.87,.27,1.17,.18,.3,.45,.45,.81,.45,.8,0,1.93-.46,3.39-1.38,1.46-.92,3.29-2.5,5.49-4.74,.88-.92,1.74-1.83,2.58-2.73,.84-.9,1.63-1.77,2.37-2.61,.74-.84,1.4-1.6,1.98-2.28,.58-.68,1.05-1.22,1.41-1.62l.54,.36c-.48,.64-1.07,1.37-1.77,2.19-.7,.82-1.45,1.68-2.25,2.58-.8,.9-1.62,1.79-2.46,2.67-.84,.88-1.66,1.72-2.46,2.52-2.32,2.32-4.31,3.94-5.97,4.86-1.66,.92-3.19,1.38-4.59,1.38-1.32,0-2.34-.36-3.06-1.08s-1.08-1.66-1.08-2.82c0-.8,.15-1.63,.45-2.49,.3-.86,.81-1.93,1.53-3.21,.72-1.28,1.68-2.87,2.88-4.77,1.2-1.9,2.7-4.25,4.5-7.05l6.18-.3Zm3.48-13.32c.76,0,1.43,.28,2.01,.84,.58,.56,.87,1.22,.87,1.98,0,.8-.32,1.53-.96,2.19-.64,.66-1.36,.99-2.16,.99-.88,0-1.64-.23-2.28-.69-.64-.46-.96-1.15-.96-2.07s.35-1.69,1.05-2.31c.7-.62,1.51-.93,2.43-.93Z"/>
      <path d="M268.72,51.32c.76-.96,1.66-2.07,2.7-3.33,1.04-1.26,2.17-2.45,3.39-3.57,1.22-1.12,2.5-2.07,3.84-2.85,1.34-.78,2.67-1.17,3.99-1.17s2.31,.4,3.09,1.2c.78,.8,1.17,1.72,1.17,2.76,0,1.36-.44,2.75-1.32,4.17-.88,1.42-1.86,2.83-2.94,4.23-1.08,1.4-2.06,2.76-2.94,4.08-.88,1.32-1.32,2.52-1.32,3.6,0,.44,.1,.81,.3,1.11,.2,.3,.52,.45,.96,.45,1.64,0,4.32-1.86,8.04-5.58,1.52-1.52,3.01-3.13,4.47-4.83,1.46-1.7,2.73-3.25,3.81-4.65l.48,.24c-.48,.6-1.03,1.28-1.65,2.04-.62,.76-1.29,1.57-2.01,2.43-.72,.86-1.49,1.75-2.31,2.67-.82,.92-1.65,1.8-2.49,2.64-1.12,1.12-2.14,2.07-3.06,2.85-.92,.78-1.77,1.41-2.55,1.89-.78,.48-1.52,.83-2.22,1.05-.7,.22-1.41,.33-2.13,.33-1.4,0-2.49-.39-3.27-1.17-.78-.78-1.17-1.77-1.17-2.97,0-1.28,.44-2.66,1.32-4.14,.88-1.48,1.86-2.92,2.94-4.32,1.08-1.4,2.06-2.71,2.94-3.93,.88-1.22,1.32-2.21,1.32-2.97,0-.56-.16-.99-.48-1.29-.32-.3-.7-.45-1.14-.45-.84,0-1.81,.39-2.91,1.17-1.1,.78-2.25,1.79-3.45,3.03-1.2,1.24-2.39,2.62-3.57,4.14-1.18,1.52-2.3,3.04-3.36,4.56-1.06,1.52-2,2.94-2.82,4.26-.82,1.32-1.47,2.4-1.95,3.24l-6.36,.24c1.36-2.16,2.69-4.21,3.99-6.15,1.3-1.94,2.46-3.72,3.48-5.34,1.02-1.62,1.84-3.05,2.46-4.29,.62-1.24,.93-2.22,.93-2.94,0-.48-.14-.92-.42-1.32-.28-.4-.72-.6-1.32-.6-.84,0-1.81,.39-2.91,1.17-1.1,.78-2.25,1.79-3.45,3.03-1.2,1.24-2.41,2.62-3.63,4.14-1.22,1.52-2.37,3.04-3.45,4.56-1.08,1.52-2.04,2.94-2.88,4.26-.84,1.32-1.5,2.4-1.98,3.24l-6.06,.24c2.2-3.52,4.38-7.03,6.54-10.53,2.16-3.5,4.28-7.07,6.36-10.71l7.02-.36-7.98,10.92,.12,.12c.84-.96,1.79-2.1,2.85-3.42s2.21-2.58,3.45-3.78c1.24-1.2,2.57-2.22,3.99-3.06,1.42-.84,2.93-1.26,4.53-1.26,1.12,0,2.07,.3,2.85,.9,.78,.6,1.17,1.5,1.17,2.7,0,.56-.1,1.16-.3,1.8-.2,.64-.45,1.27-.75,1.89-.3,.62-.64,1.24-1.02,1.86-.38,.62-.73,1.17-1.05,1.65l.12,.12Z"/>
      <path d="M313.3,41.72l6.24-.36c-.36,.72-.88,1.59-1.56,2.61-.68,1.02-1.42,2.12-2.22,3.3-.8,1.18-1.61,2.4-2.43,3.66-.82,1.26-1.57,2.48-2.25,3.66-.68,1.18-1.23,2.28-1.65,3.3-.42,1.02-.63,1.89-.63,2.61,0,1,.5,1.5,1.5,1.5s2.26-.56,3.9-1.68c1.64-1.12,3.36-2.6,5.16-4.44,.76-.76,1.53-1.58,2.31-2.46,.78-.88,1.53-1.75,2.25-2.61,.72-.86,1.38-1.66,1.98-2.4,.6-.74,1.08-1.35,1.44-1.83l.42,.24c-1.04,1.4-2.24,2.95-3.6,4.65-1.36,1.7-3,3.51-4.92,5.43s-3.81,3.49-5.67,4.71c-1.86,1.22-3.71,1.83-5.55,1.83-1.28,0-2.27-.33-2.97-.99-.7-.66-1.05-1.47-1.05-2.43,0-.32,.02-.62,.06-.9,.04-.28,.1-.5,.18-.66h-.12c-1.24,1.4-2.64,2.58-4.2,3.54-1.56,.96-3.24,1.44-5.04,1.44-.96,0-1.78-.18-2.46-.54-.68-.36-1.23-.85-1.65-1.47-.42-.62-.73-1.32-.93-2.1-.2-.78-.3-1.59-.3-2.43,0-1.96,.54-3.92,1.62-5.88,1.08-1.96,2.44-3.73,4.08-5.31,1.64-1.58,3.47-2.86,5.49-3.84,2.02-.98,3.95-1.47,5.79-1.47,1.4,0,2.5,.3,3.3,.9,.8,.6,1.46,1.54,1.98,2.82l1.5-2.4Zm-18,15.36c0,1.16,.19,2.17,.57,3.03,.38,.86,1.19,1.29,2.43,1.29,.84-.04,1.72-.39,2.64-1.05,.92-.66,1.81-1.49,2.67-2.49,.86-1,1.68-2.11,2.46-3.33,.78-1.22,1.46-2.45,2.04-3.69,.58-1.24,1.04-2.41,1.38-3.51,.34-1.1,.51-2.03,.51-2.79,0-1.08-.2-1.92-.6-2.52-.4-.6-1.18-.9-2.34-.9-.92,0-1.85,.28-2.79,.84-.94,.56-1.84,1.3-2.7,2.22-.86,.92-1.68,1.95-2.46,3.09s-1.45,2.31-2.01,3.51c-.56,1.2-1,2.35-1.32,3.45-.32,1.1-.48,2.05-.48,2.85Z"/>
      <path d="M323.74,42.44l.42-1.08h4.62l4.5-7.56,6.48-.24-4.98,7.8h7.62l-.54,1.08h-7.74c-1.8,2.96-3.32,5.45-4.56,7.47-1.24,2.02-2.23,3.7-2.97,5.04-.74,1.34-1.28,2.41-1.62,3.21-.34,.8-.51,1.5-.51,2.1,0,.52,.14,.94,.42,1.26,.28,.32,.68,.48,1.2,.48,1,0,2.32-.51,3.96-1.53,1.64-1.02,3.4-2.43,5.28-4.23,1.28-1.28,2.68-2.78,4.2-4.5,1.52-1.72,2.94-3.46,4.26-5.22l.36,.3c-.92,1.2-2.08,2.66-3.48,4.38-1.4,1.72-2.94,3.42-4.62,5.1-.92,.92-1.87,1.79-2.85,2.61-.98,.82-1.97,1.54-2.97,2.16-1,.62-1.98,1.11-2.94,1.47-.96,.36-1.9,.54-2.82,.54-1.28,0-2.4-.29-3.36-.87s-1.44-1.59-1.44-3.03c0-1.04,.22-2.11,.66-3.21,.44-1.1,1.05-2.31,1.83-3.63,.78-1.32,1.69-2.78,2.73-4.38,1.04-1.6,2.16-3.44,3.36-5.52h-4.5Z"/>
      <path d="M352.06,41.36c-1.88,2.96-3.5,5.49-4.86,7.59-1.36,2.1-2.47,3.89-3.33,5.37-.86,1.48-1.5,2.69-1.92,3.63-.42,.94-.63,1.71-.63,2.31,0,.48,.09,.87,.27,1.17,.18,.3,.45,.45,.81,.45,.8,0,1.93-.46,3.39-1.38,1.46-.92,3.29-2.5,5.49-4.74,.88-.92,1.74-1.83,2.58-2.73,.84-.9,1.63-1.77,2.37-2.61,.74-.84,1.4-1.6,1.98-2.28,.58-.68,1.05-1.22,1.41-1.62l.54,.36c-.48,.64-1.07,1.37-1.77,2.19-.7,.82-1.45,1.68-2.25,2.58-.8,.9-1.62,1.79-2.46,2.67-.84,.88-1.66,1.72-2.46,2.52-2.32,2.32-4.31,3.94-5.97,4.86-1.66,.92-3.19,1.38-4.59,1.38-1.32,0-2.34-.36-3.06-1.08s-1.08-1.66-1.08-2.82c0-.8,.15-1.63,.45-2.49,.3-.86,.81-1.93,1.53-3.21,.72-1.28,1.68-2.87,2.88-4.77,1.2-1.9,2.7-4.25,4.5-7.05l6.18-.3Zm3.48-13.32c.76,0,1.43,.28,2.01,.84,.58,.56,.87,1.22,.87,1.98,0,.8-.32,1.53-.96,2.19-.64,.66-1.36,.99-2.16,.99-.88,0-1.64-.23-2.28-.69-.64-.46-.96-1.15-.96-2.07s.35-1.69,1.05-2.31c.7-.62,1.51-.93,2.43-.93Z"/>
      <path d="M388.84,46.94c-.8,1.04-1.75,1.98-2.85,2.82-1.1,.84-2.31,1.26-3.63,1.26-.92,0-1.72-.2-2.4-.6-.68-.4-1.3-.96-1.86-1.68-.48,2-1.27,3.89-2.37,5.67-1.1,1.78-2.43,3.34-3.99,4.68-1.56,1.34-3.3,2.4-5.22,3.18-1.92,.78-3.92,1.17-6,1.17-2.2,0-3.96-.63-5.28-1.89-1.32-1.26-1.98-2.99-1.98-5.19s.54-4.15,1.62-6.09c1.08-1.94,2.48-3.64,4.2-5.1,1.72-1.46,3.62-2.62,5.7-3.48,2.08-.86,4.12-1.29,6.12-1.29,2.16,0,3.86,.58,5.1,1.74,1.24,1.16,2,2.56,2.28,4.2,.2,1.2,.65,2.16,1.35,2.88,.7,.72,1.61,1.08,2.73,1.08s2.1-.32,3.06-.96c.96-.64,1.98-1.6,3.06-2.88l.36,.48Zm-27.9,15.78c1,0,2-.34,3-1.02,1-.68,1.96-1.56,2.88-2.64,.92-1.08,1.77-2.3,2.55-3.66,.78-1.36,1.46-2.72,2.04-4.08,.58-1.36,1.03-2.66,1.35-3.9,.32-1.24,.48-2.28,.48-3.12,0-1-.21-1.78-.63-2.34-.42-.56-1.09-.84-2.01-.84-1,0-2,.34-3,1.02-1,.68-1.96,1.56-2.88,2.64-.92,1.08-1.77,2.3-2.55,3.66-.78,1.36-1.46,2.72-2.04,4.08-.58,1.36-1.03,2.66-1.35,3.9-.32,1.24-.48,2.28-.48,3.12,0,1,.21,1.78,.63,2.34,.42,.56,1.09,.84,2.01,.84Z"/>
      <path d="M388.72,52.16c.56-.72,1.37-1.74,2.43-3.06,1.06-1.32,2.27-2.62,3.63-3.9,1.36-1.28,2.82-2.4,4.38-3.36,1.56-.96,3.12-1.44,4.68-1.44,1.32,0,2.32,.37,3,1.11,.68,.74,1.02,1.65,1.02,2.73,0,1.36-.43,2.75-1.29,4.17-.86,1.42-1.81,2.84-2.85,4.26-1.04,1.42-1.99,2.78-2.85,4.08-.86,1.3-1.29,2.51-1.29,3.63,0,.48,.12,.87,.36,1.17,.24,.3,.64,.45,1.2,.45s1.49-.43,2.79-1.29c1.3-.86,3.05-2.45,5.25-4.77,1.72-1.84,3.3-3.63,4.74-5.37,1.44-1.74,2.52-3.05,3.24-3.93l.6,.3c-1.04,1.24-2.32,2.78-3.84,4.62-1.52,1.84-3.14,3.66-4.86,5.46-2.08,2.2-3.85,3.76-5.31,4.68-1.46,.92-2.97,1.38-4.53,1.38s-2.64-.42-3.36-1.26c-.72-.84-1.08-1.8-1.08-2.88,0-1.36,.43-2.76,1.29-4.2,.86-1.44,1.81-2.85,2.85-4.23,1.04-1.38,1.99-2.69,2.85-3.93,.86-1.24,1.29-2.32,1.29-3.24,0-.44-.14-.8-.42-1.08-.28-.28-.7-.42-1.26-.42-.8,0-1.74,.37-2.82,1.11-1.08,.74-2.22,1.7-3.42,2.88-1.2,1.18-2.42,2.52-3.66,4.02s-2.41,3-3.51,4.5c-1.1,1.5-2.09,2.95-2.97,4.35-.88,1.4-1.58,2.6-2.1,3.6l-6.06,.18c2.12-3.52,4.25-7.01,6.39-10.47,2.14-3.46,4.25-7.01,6.33-10.65l6.84-.24-7.8,10.92,.12,.12Z"/>
    </g>
    <g>
      <path class="cls-1" d="M13.49,51.98c0-.76,.1-1.5,.3-2.22,.2-.72,.51-1.37,.93-1.95,.42-.58,.94-1.04,1.56-1.38,.62-.34,1.35-.51,2.19-.51s1.53,.23,2.19,.69c.66,.46,.99,1.13,.99,2.01,0,1.08-.39,1.91-1.17,2.49-.78,.58-1.67,.89-2.67,.93-.2,.56-.33,1.12-.39,1.68-.06,.56-.09,1.12-.09,1.68,0,1.36,.33,2.51,.99,3.45,.66,.94,1.5,1.69,2.52,2.25,1.02,.56,2.15,.97,3.39,1.23,1.24,.26,2.42,.39,3.54,.39,2,0,3.73-.36,5.19-1.08,1.46-.72,2.71-1.69,3.75-2.91,1.04-1.22,1.89-2.61,2.55-4.17s1.18-3.2,1.56-4.92c.38-1.72,.65-3.45,.81-5.19,.16-1.74,.28-3.37,.36-4.89,.12-2.76,.5-5.38,1.14-7.86,.64-2.48,1.59-4.65,2.85-6.51,1.26-1.86,2.84-3.33,4.74-4.41,1.9-1.08,4.17-1.62,6.81-1.62,1.12,0,2.21,.11,3.27,.33,1.06,.22,1.99,.59,2.79,1.11,.8,.52,1.45,1.17,1.95,1.95,.5,.78,.75,1.75,.75,2.91,0,.96-.19,1.77-.57,2.43-.38,.66-.88,1.18-1.5,1.56-.62,.38-1.34,.66-2.16,.84-.82,.18-1.67,.27-2.55,.27,.56-.92,.99-1.82,1.29-2.7,.3-.88,.45-1.88,.45-3,0-1.52-.41-2.73-1.23-3.63-.82-.9-1.89-1.35-3.21-1.35-1.56,0-2.85,.38-3.87,1.14-1.02,.76-1.87,1.79-2.55,3.09-.68,1.3-1.2,2.82-1.56,4.56-.36,1.74-.66,3.58-.9,5.52-.24,1.94-.44,3.93-.6,5.97-.16,2.04-.36,4.04-.6,6-.2,1.72-.66,3.58-1.38,5.58-.72,2-1.82,3.87-3.3,5.61-1.48,1.74-3.41,3.19-5.79,4.35-2.38,1.16-5.33,1.74-8.85,1.74-1.72,0-3.42-.23-5.1-.69-1.68-.46-3.17-1.17-4.47-2.13s-2.35-2.16-3.15-3.6c-.8-1.44-1.2-3.12-1.2-5.04Z"/>
      <path class="cls-1" d="M90.29,20.6c-1.76,1.04-3.22,2.45-4.38,4.23-1.16,1.78-2.17,3.78-3.03,6-.86,2.22-1.65,4.61-2.37,7.17-.72,2.56-1.5,5.15-2.34,7.77-.84,2.62-1.82,5.2-2.94,7.74-1.12,2.54-2.5,4.91-4.14,7.11l.12,.12c2-1.2,4.15-2.55,6.45-4.05,2.3-1.5,4.6-3.12,6.9-4.86,2.3-1.74,4.53-3.59,6.69-5.55,2.16-1.96,4.11-4.03,5.85-6.21,1.74-2.18,3.19-4.46,4.35-6.84,1.16-2.38,1.88-4.83,2.16-7.35-.68-.32-1.15-.7-1.41-1.14-.26-.44-.39-1.02-.39-1.74,0-.84,.34-1.53,1.02-2.07,.68-.54,1.42-.81,2.22-.81,.6,0,1.12,.13,1.56,.39,.44,.26,.8,.6,1.08,1.02,.28,.42,.49,.9,.63,1.44,.14,.54,.21,1.07,.21,1.59,0,2-.46,4.01-1.38,6.03-.92,2.02-2.18,4.03-3.78,6.03-1.6,2-3.44,3.96-5.52,5.88-2.08,1.92-4.29,3.78-6.63,5.58-2.34,1.8-4.72,3.51-7.14,5.13-2.42,1.62-4.74,3.12-6.96,4.5-2.22,1.38-4.29,2.63-6.21,3.75-1.92,1.12-3.54,2.06-4.86,2.82l-.54-.42c1.44-2.2,2.62-4.52,3.54-6.96,.92-2.44,1.75-4.93,2.49-7.47,.74-2.54,1.47-5.07,2.19-7.59,.72-2.52,1.59-4.96,2.61-7.32,1.02-2.36,2.27-4.59,3.75-6.69,1.48-2.1,3.34-3.97,5.58-5.61v-.18c-.96,.4-2.22,.82-3.78,1.26-1.56,.44-3.25,.94-5.07,1.5-1.82,.56-3.65,1.21-5.49,1.95-1.84,.74-3.5,1.6-4.98,2.58-1.48,.98-2.69,2.1-3.63,3.36-.94,1.26-1.41,2.71-1.41,4.35,0,1.28,.31,2.37,.93,3.27,.62,.9,1.65,1.35,3.09,1.35,1,0,1.86-.24,2.58-.72,.72-.48,1.32-1.1,1.8-1.86,.48-.76,.83-1.61,1.05-2.55,.22-.94,.33-1.89,.33-2.85h.72c0,1.2-.14,2.35-.42,3.45-.28,1.1-.73,2.06-1.35,2.88-.62,.82-1.41,1.48-2.37,1.98-.96,.5-2.1,.75-3.42,.75-1.84,0-3.37-.49-4.59-1.47-1.22-.98-1.83-2.45-1.83-4.41,0-1.8,.5-3.34,1.5-4.62,1-1.28,2.35-2.41,4.05-3.39,1.7-.98,3.65-1.83,5.85-2.55,2.2-.72,4.49-1.41,6.87-2.07,2.38-.66,4.77-1.31,7.17-1.95,2.4-.64,4.64-1.36,6.72-2.16l.3,.48Z"/>
      <path class="cls-1" d="M124.31,15.2c-1.12,.28-2.04,.92-2.76,1.92-.72,1-1.08,2.08-1.08,3.24,0,.52,.03,1.05,.09,1.59,.06,.54,.19,1.03,.39,1.47,1.08-.56,2.28-1.1,3.6-1.62,1.32-.52,2.7-.97,4.14-1.35,1.44-.38,2.9-.69,4.38-.93,1.48-.24,2.9-.36,4.26-.36,3.08,0,5.45,.44,7.11,1.32,1.66,.88,2.49,2.28,2.49,4.2,0,1.4-.43,2.55-1.29,3.45-.86,.9-1.92,1.61-3.18,2.13-1.26,.52-2.59,.88-3.99,1.08-1.4,.2-2.62,.3-3.66,.3-2.76,0-5.2-.42-7.32-1.26-2.12-.84-4.06-2.3-5.82-4.38-1.24,.96-2.48,2.1-3.72,3.42-1.24,1.32-2.36,2.75-3.36,4.29-1,1.54-1.8,3.16-2.4,4.86-.6,1.7-.9,3.39-.9,5.07,0,.92,.09,1.79,.27,2.61,.18,.82,.49,1.53,.93,2.13,.44,.6,1.01,1.08,1.71,1.44,.7,.36,1.55,.54,2.55,.54,.84,0,1.76-.18,2.76-.54,1-.36,1.97-.84,2.91-1.44,.94-.6,1.79-1.27,2.55-2.01,.76-.74,1.32-1.49,1.68-2.25,.44-.88,.85-1.7,1.23-2.46,.38-.76,.82-1.43,1.32-2.01,.5-.58,1.11-1.03,1.83-1.35,.72-.32,1.62-.48,2.7-.48,1.24,0,1.86,.22,1.86,.66,0,.52-.19,1.13-.57,1.83-.38,.7-.81,1.41-1.29,2.13-.48,.72-.95,1.39-1.41,2.01-.46,.62-.77,1.15-.93,1.59-.36,.96-.91,2.06-1.65,3.3-.74,1.24-1.63,2.5-2.67,3.78-1.04,1.28-2.25,2.54-3.63,3.78-1.38,1.24-2.9,2.34-4.56,3.3-1.66,.96-3.47,1.74-5.43,2.34-1.96,.6-4.06,.9-6.3,.9-1.2,0-2.44-.13-3.72-.39-1.28-.26-2.43-.69-3.45-1.29-1.02-.6-1.86-1.39-2.52-2.37-.66-.98-.99-2.17-.99-3.57,0-1.28,.29-2.42,.87-3.42,.58-1,1.55-1.5,2.91-1.5,.76,0,1.46,.22,2.1,.66,.64,.44,.96,1.22,.96,2.34,0,1.28-.72,2.08-2.16,2.4-.04,.28-.09,.56-.15,.84-.06,.28-.09,.58-.09,.9,0,1.04,.19,1.87,.57,2.49,.38,.62,.89,1.09,1.53,1.41,.64,.32,1.37,.53,2.19,.63,.82,.1,1.67,.15,2.55,.15,2.16,0,4.12-.55,5.88-1.65,1.76-1.1,3.36-2.47,4.8-4.11,1.44-1.64,2.75-3.4,3.93-5.28,1.18-1.88,2.27-3.58,3.27-5.1l-.12-.12c-.8,.72-1.67,1.4-2.61,2.04-.94,.64-1.92,1.2-2.94,1.68s-2.08,.87-3.18,1.17c-1.1,.3-2.21,.45-3.33,.45-2.64,0-4.68-.8-6.12-2.4-1.44-1.6-2.16-3.68-2.16-6.24,0-2.24,.45-4.33,1.35-6.27,.9-1.94,2.07-3.72,3.51-5.34,1.44-1.62,3.05-3.09,4.83-4.41,1.78-1.32,3.57-2.48,5.37-3.48-.12-.44-.23-.86-.33-1.26-.1-.4-.15-.9-.15-1.5,0-1.52,.41-2.83,1.23-3.93,.82-1.1,1.93-1.85,3.33-2.25v.48Zm18.78,8.58c0-1.2-.43-2.15-1.29-2.85-.86-.7-2.47-1.05-4.83-1.05-1.12,0-2.36,.16-3.72,.48-1.36,.32-2.73,.75-4.11,1.29s-2.68,1.16-3.9,1.86c-1.22,.7-2.25,1.41-3.09,2.13,1.4,1.68,2.93,2.92,4.59,3.72,1.66,.8,3.61,1.2,5.85,1.2,1.48,0,2.86-.18,4.14-.54,1.28-.36,2.39-.85,3.33-1.47,.94-.62,1.68-1.34,2.22-2.16,.54-.82,.81-1.69,.81-2.61Z"/>
      <path class="cls-1" d="M211.96,18.74c-3.04,3.44-5.95,6.95-8.73,10.53-2.78,3.58-5.22,7.11-7.32,10.59s-3.78,6.83-5.04,10.05c-1.26,3.22-1.89,6.21-1.89,8.97,0,1.04,.18,1.78,.54,2.22,.36,.44,.84,.66,1.44,.66,1.16,0,2.68-.64,4.56-1.92,1.88-1.28,3.82-2.94,5.82-4.98,.64-.68,1.31-1.41,2.01-2.19,.7-.78,1.38-1.56,2.04-2.34,.66-.78,1.26-1.51,1.8-2.19,.54-.68,.99-1.24,1.35-1.68l.48,.3c-.92,1.2-1.97,2.55-3.15,4.05-1.18,1.5-2.73,3.21-4.65,5.13-2.04,2.04-4.07,3.74-6.09,5.1-2.02,1.36-4.05,2.04-6.09,2.04-1,0-1.83-.16-2.49-.48-.66-.32-1.18-.75-1.56-1.29-.38-.54-.65-1.15-.81-1.83-.16-.68-.24-1.4-.24-2.16,0-2.44,.4-4.79,1.2-7.05,.8-2.26,1.74-4.41,2.82-6.45h-8.4c-1.64,1.92-3.47,3.98-5.49,6.18-2.02,2.2-4.19,4.23-6.51,6.09-2.32,1.86-4.76,3.41-7.32,4.65-2.56,1.24-5.22,1.86-7.98,1.86-1.2,0-2.35-.14-3.45-.42-1.1-.28-2.09-.71-2.97-1.29-.88-.58-1.58-1.31-2.1-2.19-.52-.88-.78-1.94-.78-3.18,0-1.16,.32-2.22,.96-3.18,.64-.96,1.6-1.44,2.88-1.44,.8,0,1.48,.25,2.04,.75,.56,.5,.84,1.11,.84,1.83,0,1.08-.32,1.86-.96,2.34-.64,.48-1.48,.72-2.52,.72,0,.84,.2,1.6,.6,2.28,.4,.68,.9,1.24,1.5,1.68,.6,.44,1.28,.78,2.04,1.02,.76,.24,1.5,.36,2.22,.36,1.8,0,3.57-.31,5.31-.93,1.74-.62,3.45-1.45,5.13-2.49,1.68-1.04,3.3-2.24,4.86-3.6,1.56-1.36,3.06-2.76,4.5-4.2s2.8-2.89,4.08-4.35c1.28-1.46,2.46-2.79,3.54-3.99,2.2-2.48,4.49-4.93,6.87-7.35,2.38-2.42,4.87-4.7,7.47-6.84,2.6-2.14,5.33-4.06,8.19-5.76,2.86-1.7,5.87-3.03,9.03-3.99l.42,.36Zm-23.64,24.36c2.24-3.96,4.78-7.72,7.62-11.28,2.84-3.56,5.94-6.9,9.3-10.02l-.12-.12c-4.72,2.48-9.07,5.56-13.05,9.24-3.98,3.68-7.93,7.74-11.85,12.18h8.1Z"/>
      <path class="cls-1" d="M208.78,52.16c.56-.72,1.37-1.74,2.43-3.06,1.06-1.32,2.27-2.62,3.63-3.9,1.36-1.28,2.82-2.4,4.38-3.36,1.56-.96,3.12-1.44,4.68-1.44,1.32,0,2.32,.37,3,1.11,.68,.74,1.02,1.65,1.02,2.73,0,1.36-.43,2.75-1.29,4.17-.86,1.42-1.81,2.84-2.85,4.26-1.04,1.42-1.99,2.78-2.85,4.08-.86,1.3-1.29,2.51-1.29,3.63,0,.48,.12,.87,.36,1.17,.24,.3,.64,.45,1.2,.45s1.49-.43,2.79-1.29c1.3-.86,3.05-2.45,5.25-4.77,1.72-1.84,3.3-3.63,4.74-5.37,1.44-1.74,2.52-3.05,3.24-3.93l.6,.3c-1.04,1.24-2.32,2.78-3.84,4.62-1.52,1.84-3.14,3.66-4.86,5.46-2.08,2.2-3.85,3.76-5.31,4.68-1.46,.92-2.97,1.38-4.53,1.38s-2.64-.42-3.36-1.26c-.72-.84-1.08-1.8-1.08-2.88,0-1.36,.43-2.76,1.29-4.2,.86-1.44,1.81-2.85,2.85-4.23,1.04-1.38,1.99-2.69,2.85-3.93,.86-1.24,1.29-2.32,1.29-3.24,0-.44-.14-.8-.42-1.08-.28-.28-.7-.42-1.26-.42-.8,0-1.74,.37-2.82,1.11-1.08,.74-2.22,1.7-3.42,2.88-1.2,1.18-2.42,2.52-3.66,4.02s-2.41,3-3.51,4.5c-1.1,1.5-2.09,2.95-2.97,4.35-.88,1.4-1.58,2.6-2.1,3.6l-6.06,.18c2.12-3.52,4.25-7.01,6.39-10.47,2.14-3.46,4.25-7.01,6.33-10.65l6.84-.24-7.8,10.92,.12,.12Z"/>
      <path class="cls-1" d="M245.38,41.36c-1.88,2.96-3.5,5.49-4.86,7.59-1.36,2.1-2.47,3.89-3.33,5.37-.86,1.48-1.5,2.69-1.92,3.63-.42,.94-.63,1.71-.63,2.31,0,.48,.09,.87,.27,1.17,.18,.3,.45,.45,.81,.45,.8,0,1.93-.46,3.39-1.38,1.46-.92,3.29-2.5,5.49-4.74,.88-.92,1.74-1.83,2.58-2.73,.84-.9,1.63-1.77,2.37-2.61,.74-.84,1.4-1.6,1.98-2.28,.58-.68,1.05-1.22,1.41-1.62l.54,.36c-.48,.64-1.07,1.37-1.77,2.19-.7,.82-1.45,1.68-2.25,2.58-.8,.9-1.62,1.79-2.46,2.67-.84,.88-1.66,1.72-2.46,2.52-2.32,2.32-4.31,3.94-5.97,4.86-1.66,.92-3.19,1.38-4.59,1.38-1.32,0-2.34-.36-3.06-1.08s-1.08-1.66-1.08-2.82c0-.8,.15-1.63,.45-2.49,.3-.86,.81-1.93,1.53-3.21,.72-1.28,1.68-2.87,2.88-4.77,1.2-1.9,2.7-4.25,4.5-7.05l6.18-.3Zm3.48-13.32c.76,0,1.43,.28,2.01,.84,.58,.56,.87,1.22,.87,1.98,0,.8-.32,1.53-.96,2.19-.64,.66-1.36,.99-2.16,.99-.88,0-1.64-.23-2.28-.69-.64-.46-.96-1.15-.96-2.07s.35-1.69,1.05-2.31c.7-.62,1.51-.93,2.43-.93Z"/>
      <path class="cls-1" d="M268.72,51.32c.76-.96,1.66-2.07,2.7-3.33,1.04-1.26,2.17-2.45,3.39-3.57,1.22-1.12,2.5-2.07,3.84-2.85,1.34-.78,2.67-1.17,3.99-1.17s2.31,.4,3.09,1.2c.78,.8,1.17,1.72,1.17,2.76,0,1.36-.44,2.75-1.32,4.17-.88,1.42-1.86,2.83-2.94,4.23-1.08,1.4-2.06,2.76-2.94,4.08-.88,1.32-1.32,2.52-1.32,3.6,0,.44,.1,.81,.3,1.11,.2,.3,.52,.45,.96,.45,1.64,0,4.32-1.86,8.04-5.58,1.52-1.52,3.01-3.13,4.47-4.83,1.46-1.7,2.73-3.25,3.81-4.65l.48,.24c-.48,.6-1.03,1.28-1.65,2.04-.62,.76-1.29,1.57-2.01,2.43-.72,.86-1.49,1.75-2.31,2.67-.82,.92-1.65,1.8-2.49,2.64-1.12,1.12-2.14,2.07-3.06,2.85-.92,.78-1.77,1.41-2.55,1.89-.78,.48-1.52,.83-2.22,1.05-.7,.22-1.41,.33-2.13,.33-1.4,0-2.49-.39-3.27-1.17-.78-.78-1.17-1.77-1.17-2.97,0-1.28,.44-2.66,1.32-4.14,.88-1.48,1.86-2.92,2.94-4.32,1.08-1.4,2.06-2.71,2.94-3.93,.88-1.22,1.32-2.21,1.32-2.97,0-.56-.16-.99-.48-1.29-.32-.3-.7-.45-1.14-.45-.84,0-1.81,.39-2.91,1.17-1.1,.78-2.25,1.79-3.45,3.03-1.2,1.24-2.39,2.62-3.57,4.14-1.18,1.52-2.3,3.04-3.36,4.56-1.06,1.52-2,2.94-2.82,4.26-.82,1.32-1.47,2.4-1.95,3.24l-6.36,.24c1.36-2.16,2.69-4.21,3.99-6.15,1.3-1.94,2.46-3.72,3.48-5.34,1.02-1.62,1.84-3.05,2.46-4.29,.62-1.24,.93-2.22,.93-2.94,0-.48-.14-.92-.42-1.32-.28-.4-.72-.6-1.32-.6-.84,0-1.81,.39-2.91,1.17-1.1,.78-2.25,1.79-3.45,3.03-1.2,1.24-2.41,2.62-3.63,4.14-1.22,1.52-2.37,3.04-3.45,4.56-1.08,1.52-2.04,2.94-2.88,4.26-.84,1.32-1.5,2.4-1.98,3.24l-6.06,.24c2.2-3.52,4.38-7.03,6.54-10.53,2.16-3.5,4.28-7.07,6.36-10.71l7.02-.36-7.98,10.92,.12,.12c.84-.96,1.79-2.1,2.85-3.42s2.21-2.58,3.45-3.78c1.24-1.2,2.57-2.22,3.99-3.06,1.42-.84,2.93-1.26,4.53-1.26,1.12,0,2.07,.3,2.85,.9,.78,.6,1.17,1.5,1.17,2.7,0,.56-.1,1.16-.3,1.8-.2,.64-.45,1.27-.75,1.89-.3,.62-.64,1.24-1.02,1.86-.38,.62-.73,1.17-1.05,1.65l.12,.12Z"/>
      <path class="cls-1" d="M313.3,41.72l6.24-.36c-.36,.72-.88,1.59-1.56,2.61-.68,1.02-1.42,2.12-2.22,3.3-.8,1.18-1.61,2.4-2.43,3.66-.82,1.26-1.57,2.48-2.25,3.66-.68,1.18-1.23,2.28-1.65,3.3-.42,1.02-.63,1.89-.63,2.61,0,1,.5,1.5,1.5,1.5s2.26-.56,3.9-1.68c1.64-1.12,3.36-2.6,5.16-4.44,.76-.76,1.53-1.58,2.31-2.46,.78-.88,1.53-1.75,2.25-2.61,.72-.86,1.38-1.66,1.98-2.4,.6-.74,1.08-1.35,1.44-1.83l.42,.24c-1.04,1.4-2.24,2.95-3.6,4.65-1.36,1.7-3,3.51-4.92,5.43s-3.81,3.49-5.67,4.71c-1.86,1.22-3.71,1.83-5.55,1.83-1.28,0-2.27-.33-2.97-.99-.7-.66-1.05-1.47-1.05-2.43,0-.32,.02-.62,.06-.9,.04-.28,.1-.5,.18-.66h-.12c-1.24,1.4-2.64,2.58-4.2,3.54-1.56,.96-3.24,1.44-5.04,1.44-.96,0-1.78-.18-2.46-.54-.68-.36-1.23-.85-1.65-1.47-.42-.62-.73-1.32-.93-2.1-.2-.78-.3-1.59-.3-2.43,0-1.96,.54-3.92,1.62-5.88,1.08-1.96,2.44-3.73,4.08-5.31,1.64-1.58,3.47-2.86,5.49-3.84,2.02-.98,3.95-1.47,5.79-1.47,1.4,0,2.5,.3,3.3,.9,.8,.6,1.46,1.54,1.98,2.82l1.5-2.4Zm-18,15.36c0,1.16,.19,2.17,.57,3.03,.38,.86,1.19,1.29,2.43,1.29,.84-.04,1.72-.39,2.64-1.05,.92-.66,1.81-1.49,2.67-2.49,.86-1,1.68-2.11,2.46-3.33,.78-1.22,1.46-2.45,2.04-3.69,.58-1.24,1.04-2.41,1.38-3.51,.34-1.1,.51-2.03,.51-2.79,0-1.08-.2-1.92-.6-2.52-.4-.6-1.18-.9-2.34-.9-.92,0-1.85,.28-2.79,.84-.94,.56-1.84,1.3-2.7,2.22-.86,.92-1.68,1.95-2.46,3.09s-1.45,2.31-2.01,3.51c-.56,1.2-1,2.35-1.32,3.45-.32,1.1-.48,2.05-.48,2.85Z"/>
      <path class="cls-1" d="M323.74,42.44l.42-1.08h4.62l4.5-7.56,6.48-.24-4.98,7.8h7.62l-.54,1.08h-7.74c-1.8,2.96-3.32,5.45-4.56,7.47-1.24,2.02-2.23,3.7-2.97,5.04-.74,1.34-1.28,2.41-1.62,3.21-.34,.8-.51,1.5-.51,2.1,0,.52,.14,.94,.42,1.26,.28,.32,.68,.48,1.2,.48,1,0,2.32-.51,3.96-1.53,1.64-1.02,3.4-2.43,5.28-4.23,1.28-1.28,2.68-2.78,4.2-4.5,1.52-1.72,2.94-3.46,4.26-5.22l.36,.3c-.92,1.2-2.08,2.66-3.48,4.38-1.4,1.72-2.94,3.42-4.62,5.1-.92,.92-1.87,1.79-2.85,2.61-.98,.82-1.97,1.54-2.97,2.16-1,.62-1.98,1.11-2.94,1.47-.96,.36-1.9,.54-2.82,.54-1.28,0-2.4-.29-3.36-.87s-1.44-1.59-1.44-3.03c0-1.04,.22-2.11,.66-3.21,.44-1.1,1.05-2.31,1.83-3.63,.78-1.32,1.69-2.78,2.73-4.38,1.04-1.6,2.16-3.44,3.36-5.52h-4.5Z"/>
      <path class="cls-1" d="M352.06,41.36c-1.88,2.96-3.5,5.49-4.86,7.59-1.36,2.1-2.47,3.89-3.33,5.37-.86,1.48-1.5,2.69-1.92,3.63-.42,.94-.63,1.71-.63,2.31,0,.48,.09,.87,.27,1.17,.18,.3,.45,.45,.81,.45,.8,0,1.93-.46,3.39-1.38,1.46-.92,3.29-2.5,5.49-4.74,.88-.92,1.74-1.83,2.58-2.73,.84-.9,1.63-1.77,2.37-2.61,.74-.84,1.4-1.6,1.98-2.28,.58-.68,1.05-1.22,1.41-1.62l.54,.36c-.48,.64-1.07,1.37-1.77,2.19-.7,.82-1.45,1.68-2.25,2.58-.8,.9-1.62,1.79-2.46,2.67-.84,.88-1.66,1.72-2.46,2.52-2.32,2.32-4.31,3.94-5.97,4.86-1.66,.92-3.19,1.38-4.59,1.38-1.32,0-2.34-.36-3.06-1.08s-1.08-1.66-1.08-2.82c0-.8,.15-1.63,.45-2.49,.3-.86,.81-1.93,1.53-3.21,.72-1.28,1.68-2.87,2.88-4.77,1.2-1.9,2.7-4.25,4.5-7.05l6.18-.3Zm3.48-13.32c.76,0,1.43,.28,2.01,.84,.58,.56,.87,1.22,.87,1.98,0,.8-.32,1.53-.96,2.19-.64,.66-1.36,.99-2.16,.99-.88,0-1.64-.23-2.28-.69-.64-.46-.96-1.15-.96-2.07s.35-1.69,1.05-2.31c.7-.62,1.51-.93,2.43-.93Z"/>
      <path class="cls-1" d="M388.84,46.94c-.8,1.04-1.75,1.98-2.85,2.82-1.1,.84-2.31,1.26-3.63,1.26-.92,0-1.72-.2-2.4-.6-.68-.4-1.3-.96-1.86-1.68-.48,2-1.27,3.89-2.37,5.67-1.1,1.78-2.43,3.34-3.99,4.68-1.56,1.34-3.3,2.4-5.22,3.18-1.92,.78-3.92,1.17-6,1.17-2.2,0-3.96-.63-5.28-1.89-1.32-1.26-1.98-2.99-1.98-5.19s.54-4.15,1.62-6.09c1.08-1.94,2.48-3.64,4.2-5.1,1.72-1.46,3.62-2.62,5.7-3.48,2.08-.86,4.12-1.29,6.12-1.29,2.16,0,3.86,.58,5.1,1.74,1.24,1.16,2,2.56,2.28,4.2,.2,1.2,.65,2.16,1.35,2.88,.7,.72,1.61,1.08,2.73,1.08s2.1-.32,3.06-.96c.96-.64,1.98-1.6,3.06-2.88l.36,.48Zm-27.9,15.78c1,0,2-.34,3-1.02,1-.68,1.96-1.56,2.88-2.64,.92-1.08,1.77-2.3,2.55-3.66,.78-1.36,1.46-2.72,2.04-4.08,.58-1.36,1.03-2.66,1.35-3.9,.32-1.24,.48-2.28,.48-3.12,0-1-.21-1.78-.63-2.34-.42-.56-1.09-.84-2.01-.84-1,0-2,.34-3,1.02-1,.68-1.96,1.56-2.88,2.64-.92,1.08-1.77,2.3-2.55,3.66-.78,1.36-1.46,2.72-2.04,4.08-.58,1.36-1.03,2.66-1.35,3.9-.32,1.24-.48,2.28-.48,3.12,0,1,.21,1.78,.63,2.34,.42,.56,1.09,.84,2.01,.84Z"/>
      <path class="cls-1" d="M388.72,52.16c.56-.72,1.37-1.74,2.43-3.06,1.06-1.32,2.27-2.62,3.63-3.9,1.36-1.28,2.82-2.4,4.38-3.36,1.56-.96,3.12-1.44,4.68-1.44,1.32,0,2.32,.37,3,1.11,.68,.74,1.02,1.65,1.02,2.73,0,1.36-.43,2.75-1.29,4.17-.86,1.42-1.81,2.84-2.85,4.26-1.04,1.42-1.99,2.78-2.85,4.08-.86,1.3-1.29,2.51-1.29,3.63,0,.48,.12,.87,.36,1.17,.24,.3,.64,.45,1.2,.45s1.49-.43,2.79-1.29c1.3-.86,3.05-2.45,5.25-4.77,1.72-1.84,3.3-3.63,4.74-5.37,1.44-1.74,2.52-3.05,3.24-3.93l.6,.3c-1.04,1.24-2.32,2.78-3.84,4.62-1.52,1.84-3.14,3.66-4.86,5.46-2.08,2.2-3.85,3.76-5.31,4.68-1.46,.92-2.97,1.38-4.53,1.38s-2.64-.42-3.36-1.26c-.72-.84-1.08-1.8-1.08-2.88,0-1.36,.43-2.76,1.29-4.2,.86-1.44,1.81-2.85,2.85-4.23,1.04-1.38,1.99-2.69,2.85-3.93,.86-1.24,1.29-2.32,1.29-3.24,0-.44-.14-.8-.42-1.08-.28-.28-.7-.42-1.26-.42-.8,0-1.74,.37-2.82,1.11-1.08,.74-2.22,1.7-3.42,2.88-1.2,1.18-2.42,2.52-3.66,4.02s-2.41,3-3.51,4.5c-1.1,1.5-2.09,2.95-2.97,4.35-.88,1.4-1.58,2.6-2.1,3.6l-6.06,.18c2.12-3.52,4.25-7.01,6.39-10.47,2.14-3.46,4.25-7.01,6.33-10.65l6.84-.24-7.8,10.92,.12,.12Z"/>
    </g>
  </g>
</svg>