<?xml version="1.0" encoding="UTF-8"?>
<svg id="Layer_1" data-name="Layer 1" xmlns="http://www.w3.org/2000/svg" xmlns:xlink="http://www.w3.org/1999/xlink" viewBox="0 0 384.05 48.9">
  <defs>
    <style>
      .cls-1 {
        fill: url(#Orange_Yellow);
      }
    </style>
    <linearGradient id="Orange_Yellow" data-name="Orange, Yellow" x1="0" y1="24.45" x2="384.05" y2="24.45" gradientUnits="userSpaceOnUse">
      <stop offset="0" stop-color="#fff33b"/>
      <stop offset=".04" stop-color="#fee62d"/>
      <stop offset=".12" stop-color="#fdd51b"/>
      <stop offset=".2" stop-color="#fdca0f"/>
      <stop offset=".28" stop-color="#fdc70c"/>
      <stop offset=".67" stop-color="#f3903f"/>
      <stop offset=".89" stop-color="#ed683c"/>
      <stop offset="1" stop-color="#e93e3a"/>
    </linearGradient>
  </defs>
  <g>
    <path d="M3.48,32.52c.92,0,1.61,.21,2.07,.63,.46,.42,.69,.97,.69,1.65,0,.6-.18,1.11-.54,1.53-.36,.42-.84,.63-1.44,.63-.2,0-.43-.05-.69-.15-.26-.1-.45-.25-.57-.45-.44,.48-.73,1.06-.87,1.74-.14,.68-.21,1.4-.21,2.16,0,1.04,.25,2.04,.75,3,.5,.96,1.22,1.8,2.16,2.52,.94,.72,2.07,1.3,3.39,1.74,1.32,.44,2.78,.66,4.38,.66,2.72,0,5.02-.62,6.9-1.86,1.88-1.24,3.4-2.83,4.56-4.77,1.16-1.94,2-4.09,2.52-6.45,.52-2.36,.8-4.64,.84-6.84,.04-3.56,.39-6.76,1.05-9.6,.66-2.84,1.6-5.25,2.82-7.23,1.22-1.98,2.74-3.51,4.56-4.59,1.82-1.08,3.91-1.62,6.27-1.62,2.12,0,3.84,.51,5.16,1.53,1.32,1.02,1.98,2.35,1.98,3.99,0,1.28-.45,2.24-1.35,2.88-.9,.64-1.97,.96-3.21,.96,.44-.68,.77-1.34,.99-1.98,.22-.64,.33-1.44,.33-2.4,0-1.44-.42-2.51-1.26-3.21-.84-.7-1.84-1.05-3-1.05-1.56,0-2.89,.31-3.99,.93-1.1,.62-2.03,1.47-2.79,2.55-.76,1.08-1.37,2.34-1.83,3.78-.46,1.44-.83,2.97-1.11,4.59-.28,1.62-.49,3.29-.63,5.01-.14,1.72-.27,3.42-.39,5.1-.28,4.12-1.01,7.53-2.19,10.23-1.18,2.7-2.63,4.85-4.35,6.45-1.72,1.6-3.64,2.72-5.76,3.36-2.12,.64-4.3,.96-6.54,.96-1.8,0-3.45-.29-4.95-.87-1.5-.58-2.79-1.38-3.87-2.4-1.08-1.02-1.91-2.23-2.49-3.63-.58-1.4-.87-2.94-.87-4.62,0-1.4,.32-2.56,.96-3.48,.64-.92,1.48-1.38,2.52-1.38Z"/>
    <path d="M77.28,5.52c-2.16,1.68-3.98,3.59-5.46,5.73-1.48,2.14-2.77,4.39-3.87,6.75-1.1,2.36-2.09,4.8-2.97,7.32-.88,2.52-1.81,5-2.79,7.44-.98,2.44-2.09,4.81-3.33,7.11-1.24,2.3-2.78,4.43-4.62,6.39l.12,.12c2.36-1.4,4.59-2.75,6.69-4.05,2.1-1.3,4.11-2.57,6.03-3.81,5.04-3.24,9.02-6.34,11.94-9.3,2.92-2.96,5.12-5.67,6.6-8.13,1.48-2.46,2.42-4.61,2.82-6.45,.4-1.84,.6-3.22,.6-4.14-.52-.16-.87-.42-1.05-.78-.18-.36-.27-.8-.27-1.32,0-.68,.22-1.24,.66-1.68,.44-.44,1-.66,1.68-.66,1.04,0,1.75,.35,2.13,1.05,.38,.7,.57,1.63,.57,2.79,0,1.56-.37,3.21-1.11,4.95-.74,1.74-1.76,3.5-3.06,5.28-1.3,1.78-2.81,3.57-4.53,5.37-1.72,1.8-3.55,3.54-5.49,5.22-1.94,1.68-3.96,3.28-6.06,4.8-2.1,1.52-4.15,2.9-6.15,4.14-2.36,1.44-4.72,2.88-7.08,4.32-2.36,1.44-4.82,2.92-7.38,4.44l-.3-.3c1.4-2.04,2.61-4.23,3.63-6.57,1.02-2.34,1.97-4.75,2.85-7.23,.88-2.48,1.77-4.96,2.67-7.44,.9-2.48,1.93-4.87,3.09-7.17,1.16-2.3,2.54-4.45,4.14-6.45,1.6-2,3.54-3.74,5.82-5.22l-.12-.12c-1.68,.88-3.5,1.55-5.46,2.01-1.96,.46-3.96,.97-6,1.53-1.32,.36-2.75,.84-4.29,1.44-1.54,.6-2.97,1.37-4.29,2.31-1.32,.94-2.43,2.04-3.33,3.3-.9,1.26-1.35,2.73-1.35,4.41,0,1.4,.44,2.48,1.32,3.24,.88,.76,1.92,1.14,3.12,1.14,.72,0,1.43-.15,2.13-.45,.7-.3,1.32-.7,1.86-1.2,.54-.5,.97-1.11,1.29-1.83,.32-.72,.48-1.5,.48-2.34v-1.08c0-.32-.04-.66-.12-1.02h.66c.04,.32,.08,.66,.12,1.02,.04,.36,.06,.76,.06,1.2,0,.84-.17,1.64-.51,2.4-.34,.76-.81,1.44-1.41,2.04s-1.31,1.08-2.13,1.44c-.82,.36-1.69,.54-2.61,.54-1.68,0-3.09-.49-4.23-1.47-1.14-.98-1.71-2.33-1.71-4.05,0-1.88,.49-3.47,1.47-4.77,.98-1.3,2.19-2.4,3.63-3.3,1.44-.9,2.98-1.63,4.62-2.19,1.64-.56,3.12-1.02,4.44-1.38,1.04-.32,2.25-.63,3.63-.93,1.38-.3,2.77-.65,4.17-1.05,1.4-.4,2.77-.89,4.11-1.47,1.34-.58,2.51-1.31,3.51-2.19l.42,.3Z"/>
    <path d="M105.84,.36c-.92,.8-1.62,1.75-2.1,2.85-.48,1.1-.72,2.15-.72,3.15,0,.84,.12,1.66,.36,2.46,.24,.8,.56,1.44,.96,1.92,2.6-1.6,5.38-2.92,8.34-3.96,2.96-1.04,6-1.56,9.12-1.56,.72,0,1.47,.06,2.25,.18,.78,.12,1.49,.33,2.13,.63,.64,.3,1.17,.73,1.59,1.29,.42,.56,.63,1.26,.63,2.1,0,1.32-.38,2.43-1.14,3.33-.76,.9-1.74,1.63-2.94,2.19-1.2,.56-2.54,.96-4.02,1.2-1.48,.24-2.94,.36-4.38,.36-1.84,0-3.76-.27-5.76-.81-2-.54-3.76-1.57-5.28-3.09-1.16,.8-2.35,1.87-3.57,3.21-1.22,1.34-2.34,2.79-3.36,4.35-1.02,1.56-1.86,3.16-2.52,4.8-.66,1.64-.99,3.16-.99,4.56,0,.84,.07,1.63,.21,2.37,.14,.74,.4,1.38,.78,1.92,.38,.54,.89,.97,1.53,1.29,.64,.32,1.44,.48,2.4,.48,1.12,0,2.26-.22,3.42-.66,1.16-.44,2.24-.97,3.24-1.59,1-.62,1.86-1.25,2.58-1.89,.72-.64,1.16-1.16,1.32-1.56,.4-.84,.77-1.62,1.11-2.34,.34-.72,.73-1.35,1.17-1.89,.44-.54,.97-.97,1.59-1.29,.62-.32,1.39-.48,2.31-.48,.24,0,.47,.06,.69,.18,.22,.12,.33,.36,.33,.72,0,.44-.4,1.12-1.2,2.04-.8,.92-1.62,1.92-2.46,3-1.24,2.2-2.65,4.44-4.23,6.72-1.58,2.28-3.35,4.33-5.31,6.15-1.96,1.82-4.14,3.31-6.54,4.47s-5.02,1.74-7.86,1.74c-1.36,0-2.63-.19-3.81-.57-1.18-.38-2.21-.92-3.09-1.62-.88-.7-1.57-1.54-2.07-2.52-.5-.98-.75-2.05-.75-3.21,0-1.04,.25-1.96,.75-2.76,.5-.8,1.31-1.2,2.43-1.2,.56,0,1.05,.21,1.47,.63s.63,.91,.63,1.47c0,.64-.19,1.16-.57,1.56-.38,.4-.89,.58-1.53,.54-.12,0-.29,0-.51-.03-.22-.02-.39-.07-.51-.15-.08,.28-.12,.54-.12,.78v.6c0,.88,.22,1.68,.66,2.4,.44,.72,1.02,1.33,1.74,1.83,.72,.5,1.55,.88,2.49,1.14,.94,.26,1.93,.39,2.97,.39,2.16,0,4.15-.52,5.97-1.56,1.82-1.04,3.49-2.34,5.01-3.9,1.52-1.56,2.91-3.25,4.17-5.07,1.26-1.82,2.39-3.51,3.39-5.07l-.12-.12c-1.4,1.16-2.98,2.13-4.74,2.91-1.76,.78-3.6,1.17-5.52,1.17-2.24,0-4.01-.66-5.31-1.98-1.3-1.32-1.95-3.1-1.95-5.34,0-1.76,.43-3.52,1.29-5.28,.86-1.76,1.94-3.43,3.24-5.01,1.3-1.58,2.73-3.04,4.29-4.38,1.56-1.34,3.02-2.45,4.38-3.33-1-1.44-1.5-3.02-1.5-4.74,0-1.32,.31-2.54,.93-3.66,.62-1.12,1.37-2.06,2.25-2.82l.36,.36Zm20.16,8.52c0-.72-.17-1.27-.51-1.65-.34-.38-.78-.67-1.32-.87-.54-.2-1.11-.32-1.71-.36-.6-.04-1.18-.06-1.74-.06-1.32,0-2.67,.18-4.05,.54-1.38,.36-2.74,.82-4.08,1.38-1.34,.56-2.63,1.21-3.87,1.95-1.24,.74-2.36,1.51-3.36,2.31,1,1.16,2.43,2.06,4.29,2.7,1.86,.64,3.97,.96,6.33,.96,1.28,0,2.52-.15,3.72-.45,1.2-.3,2.26-.74,3.18-1.32,.92-.58,1.67-1.3,2.25-2.16,.58-.86,.87-1.85,.87-2.97Z"/>
    <path d="M165.72,29.28c-1.96,2.48-3.98,4.87-6.06,7.17-2.08,2.3-4.17,4.34-6.27,6.12-2.1,1.78-4.19,3.2-6.27,4.26-2.08,1.06-4.08,1.59-6,1.59-1.32,0-2.37-.15-3.15-.45-.78-.3-1.38-.66-1.8-1.08-.42-.42-.7-.86-.84-1.32-.14-.46-.21-.87-.21-1.23,0-.68,.2-1.26,.6-1.74,.4-.48,.96-.72,1.68-.72,.64,0,1.14,.22,1.5,.66,.36,.44,.54,.96,.54,1.56,0,.36-.1,.72-.3,1.08-.2,.36-.48,.58-.84,.66,.36,.56,.86,.93,1.5,1.11,.64,.18,1.3,.27,1.98,.27,1.72,0,3.53-.5,5.43-1.5,1.9-1,3.82-2.31,5.76-3.93,1.94-1.62,3.87-3.46,5.79-5.52,1.92-2.06,3.76-4.17,5.52-6.33,.76-.96,1.71-2.14,2.85-3.54,1.14-1.4,2.43-2.92,3.87-4.56,1.44-1.64,3.01-3.31,4.71-5.01,1.7-1.7,3.51-3.31,5.43-4.83,1.92-1.52,3.92-2.88,6-4.08,2.08-1.2,4.2-2.1,6.36-2.7l.18,.24c-1.36,1.24-2.78,2.78-4.26,4.62-1.48,1.84-2.93,3.83-4.35,5.97-1.42,2.14-2.77,4.39-4.05,6.75-1.28,2.36-2.41,4.71-3.39,7.05-.98,2.34-1.76,4.59-2.34,6.75-.58,2.16-.87,4.14-.87,5.94,0,1.24,.21,2.29,.63,3.15,.42,.86,1.27,1.29,2.55,1.29,.76,0,1.63-.28,2.61-.84,.98-.56,2.01-1.3,3.09-2.22,1.08-.92,2.15-1.94,3.21-3.06,1.06-1.12,2.07-2.23,3.03-3.33,.96-1.1,1.82-2.14,2.58-3.12,.76-.98,1.36-1.77,1.8-2.37l.42,.18c-1.36,1.72-2.8,3.54-4.32,5.46-1.52,1.92-3.06,3.67-4.62,5.25-1.56,1.58-3.13,2.89-4.71,3.93-1.58,1.04-3.09,1.56-4.53,1.56-.96,0-1.77-.17-2.43-.51s-1.21-.81-1.65-1.41-.76-1.28-.96-2.04c-.2-.76-.3-1.56-.3-2.4,0-2.28,.32-4.47,.96-6.57,.64-2.1,1.36-4.17,2.16-6.21h-8.22Zm8.52-.72c1.8-3.72,3.93-7.36,6.39-10.92,2.46-3.56,5.37-6.94,8.73-10.14l-.12-.12c-2.12,1.04-4.19,2.32-6.21,3.84-2.02,1.52-3.99,3.2-5.91,5.04-1.92,1.84-3.79,3.8-5.61,5.88-1.82,2.08-3.59,4.22-5.31,6.42h8.04Z"/>
    <path d="M199.74,27.3l-7.92,10.98,.12,.12c.84-1,1.82-2.17,2.94-3.51,1.12-1.34,2.32-2.61,3.6-3.81,1.28-1.2,2.61-2.21,3.99-3.03,1.38-.82,2.75-1.23,4.11-1.23,1.2,0,2.13,.33,2.79,.99,.66,.66,.99,1.51,.99,2.55,0,.64-.23,1.4-.69,2.28-.46,.88-1.03,1.82-1.71,2.82-.68,1-1.42,2.02-2.22,3.06-.8,1.04-1.54,2.03-2.22,2.97-.68,.94-1.25,1.8-1.71,2.58-.46,.78-.69,1.43-.69,1.95,0,1.12,.56,1.68,1.68,1.68,1.28,0,2.64-.43,4.08-1.29,1.44-.86,3.16-2.31,5.16-4.35,.8-.8,1.61-1.68,2.43-2.64,.82-.96,1.61-1.91,2.37-2.85,.76-.94,1.45-1.83,2.07-2.67,.62-.84,1.11-1.54,1.47-2.1l.42,.24c-.8,1.2-1.83,2.63-3.09,4.29-1.26,1.66-2.63,3.29-4.11,4.89-.88,.96-1.78,1.88-2.7,2.76-.92,.88-1.84,1.65-2.76,2.31-.92,.66-1.83,1.18-2.73,1.56-.9,.38-1.79,.57-2.67,.57-1.16,0-2.12-.32-2.88-.96-.76-.64-1.14-1.52-1.14-2.64,0-1.2,.48-2.51,1.44-3.93,.96-1.42,2.02-2.85,3.18-4.29s2.22-2.82,3.18-4.14c.96-1.32,1.44-2.48,1.44-3.48,0-.48-.16-.84-.48-1.08-.32-.24-.74-.36-1.26-.36-1,0-2.12,.37-3.36,1.11-1.24,.74-2.51,1.72-3.81,2.94-1.3,1.22-2.6,2.58-3.9,4.08-1.3,1.5-2.51,3-3.63,4.5-1.12,1.5-2.12,2.94-3,4.32-.88,1.38-1.54,2.53-1.98,3.45h-3.72c1.04-1.76,2.15-3.55,3.33-5.37,1.18-1.82,2.35-3.62,3.51-5.4,1.16-1.78,2.27-3.5,3.33-5.16,1.06-1.66,2.01-3.17,2.85-4.53l3.9-.18Z"/>
    <path d="M227.1,27.3c-2.2,3.16-4.06,5.82-5.58,7.98-1.52,2.16-2.75,3.96-3.69,5.4-.94,1.44-1.62,2.58-2.04,3.42-.42,.84-.63,1.52-.63,2.04,0,1.04,.42,1.56,1.26,1.56s1.73-.29,2.79-.87c1.06-.58,2.17-1.33,3.33-2.25,1.16-.92,2.32-1.96,3.48-3.12,1.16-1.16,2.25-2.31,3.27-3.45,1.02-1.14,1.92-2.24,2.7-3.3,.78-1.06,1.35-1.93,1.71-2.61l.48,.3c-.48,.8-1.13,1.76-1.95,2.88-.82,1.12-1.75,2.27-2.79,3.45-1.04,1.18-2.14,2.35-3.3,3.51-1.16,1.16-2.34,2.2-3.54,3.12-1.2,.92-2.37,1.66-3.51,2.22-1.14,.56-2.19,.84-3.15,.84-1.08,0-1.88-.3-2.4-.9-.52-.6-.78-1.26-.78-1.98,0-.84,.19-1.73,.57-2.67,.38-.94,.99-2.09,1.83-3.45,.84-1.36,1.93-3.01,3.27-4.95,1.34-1.94,2.95-4.33,4.83-7.17h3.84Zm3.48-11.16c.56,0,1.02,.19,1.38,.57,.36,.38,.54,.85,.54,1.41s-.18,1.03-.54,1.41c-.36,.38-.82,.57-1.38,.57s-1.02-.19-1.38-.57c-.36-.38-.54-.85-.54-1.41s.18-1.03,.54-1.41c.36-.38,.82-.57,1.38-.57Z"/>
    <path d="M223.02,47.94c.88-1.48,1.89-3.1,3.03-4.86,1.14-1.76,2.3-3.55,3.48-5.37,1.18-1.82,2.34-3.62,3.48-5.4,1.14-1.78,2.17-3.45,3.09-5.01h3.66l-7.92,11.16,.12,.12c.76-.92,1.68-2.05,2.76-3.39,1.08-1.34,2.27-2.63,3.57-3.87,1.3-1.24,2.69-2.3,4.17-3.18,1.48-.88,3-1.32,4.56-1.32,.96,0,1.75,.25,2.37,.75,.62,.5,.93,1.23,.93,2.19,0,.56-.2,1.24-.6,2.04-.4,.8-.87,1.61-1.41,2.43-.54,.82-1.09,1.61-1.65,2.37-.56,.76-1,1.38-1.32,1.86l.12,.12c.84-1.2,1.85-2.48,3.03-3.84,1.18-1.36,2.44-2.63,3.78-3.81,1.34-1.18,2.72-2.16,4.14-2.94,1.42-.78,2.79-1.17,4.11-1.17,1.16,0,2.03,.28,2.61,.84,.58,.56,.87,1.34,.87,2.34,0,.68-.23,1.48-.69,2.4-.46,.92-1.04,1.89-1.74,2.91-.7,1.02-1.45,2.05-2.25,3.09-.8,1.04-1.55,2.04-2.25,3-.7,.96-1.28,1.85-1.74,2.67-.46,.82-.69,1.51-.69,2.07,0,.48,.15,.86,.45,1.14,.3,.28,.67,.42,1.11,.42,.96,0,2.09-.38,3.39-1.14,1.3-.76,2.7-1.82,4.2-3.18,1.5-1.36,3.07-2.99,4.71-4.89,1.64-1.9,3.3-3.99,4.98-6.27l.48,.24c-1.64,2.24-3.28,4.33-4.92,6.27-1.64,1.94-3.23,3.63-4.77,5.07s-3.02,2.57-4.44,3.39c-1.42,.82-2.73,1.23-3.93,1.23s-2.16-.35-2.76-1.05c-.6-.7-.9-1.57-.9-2.61,0-.76,.23-1.61,.69-2.55,.46-.94,1.04-1.91,1.74-2.91,.7-1,1.45-2,2.25-3,.8-1,1.55-1.96,2.25-2.88,.7-.92,1.28-1.76,1.74-2.52,.46-.76,.69-1.38,.69-1.86,0-.56-.15-.95-.45-1.17-.3-.22-.67-.33-1.11-.33-.8,0-1.74,.27-2.82,.81s-2.21,1.3-3.39,2.28c-1.18,.98-2.39,2.12-3.63,3.42-1.24,1.3-2.45,2.7-3.63,4.2-1.18,1.5-2.29,3.08-3.33,4.74-1.04,1.66-1.94,3.31-2.7,4.95h-3.84c1.12-2,2.33-4,3.63-6,1.3-2,2.51-3.85,3.63-5.55,1.12-1.7,2.06-3.18,2.82-4.44,.76-1.26,1.14-2.19,1.14-2.79,0-1.08-.56-1.62-1.68-1.62-1,0-2.12,.37-3.36,1.11-1.24,.74-2.5,1.7-3.78,2.88-1.28,1.18-2.54,2.52-3.78,4.02-1.24,1.5-2.41,3.01-3.51,4.53-1.1,1.52-2.07,2.97-2.91,4.35-.84,1.38-1.5,2.55-1.98,3.51h-3.9Z"/>
    <path d="M289.74,27.3h3.9c-1.48,2.08-2.9,4.1-4.26,6.06-1.36,1.96-2.57,3.77-3.63,5.43-1.06,1.66-1.91,3.12-2.55,4.38-.64,1.26-.96,2.25-.96,2.97,0,1.04,.54,1.56,1.62,1.56,.84,0,1.91-.41,3.21-1.23,1.3-.82,2.71-1.95,4.23-3.39,1.52-1.44,3.08-3.12,4.68-5.04,1.6-1.92,3.12-3.96,4.56-6.12l.36,.12c-1.08,1.64-2.35,3.41-3.81,5.31-1.46,1.9-2.99,3.67-4.59,5.31-1.6,1.64-3.2,3.01-4.8,4.11-1.6,1.1-3.1,1.65-4.5,1.65-1.16,0-2.01-.29-2.55-.87-.54-.58-.81-1.27-.81-2.07,0-.56,.09-1.11,.27-1.65s.37-1.09,.57-1.65l-.12-.06c-.52,.56-1.17,1.21-1.95,1.95-.78,.74-1.62,1.43-2.52,2.07-.9,.64-1.83,1.18-2.79,1.62-.96,.44-1.88,.66-2.76,.66-1.48,0-2.52-.46-3.12-1.38-.6-.92-.9-1.96-.9-3.12,0-1.64,.52-3.45,1.56-5.43s2.36-3.84,3.96-5.58c1.6-1.74,3.34-3.19,5.22-4.35,1.88-1.16,3.66-1.74,5.34-1.74,.8,0,1.5,.11,2.1,.33,.6,.22,1.1,.52,1.5,.9,.4,.38,.71,.81,.93,1.29,.22,.48,.39,.98,.51,1.5h.12l1.98-3.54Zm-19.62,16.8c0,.92,.19,1.63,.57,2.13,.38,.5,.91,.75,1.59,.75s1.48-.25,2.4-.75c.92-.5,1.88-1.17,2.88-2.01,1-.84,1.99-1.81,2.97-2.91,.98-1.1,1.85-2.27,2.61-3.51,.76-1.24,1.38-2.5,1.86-3.78,.48-1.28,.72-2.5,.72-3.66,0-.92-.26-1.62-.78-2.1-.52-.48-1.16-.72-1.92-.72-1.2,0-2.54,.52-4.02,1.56-1.48,1.04-2.88,2.37-4.2,3.99-1.32,1.62-2.43,3.41-3.33,5.37-.9,1.96-1.35,3.84-1.35,5.64Z"/>
    <path d="M310.91,20.34l-4.74,6.96h7.92l-.36,.72h-8.04c-1.6,2.6-3.03,4.85-4.29,6.75-1.26,1.9-2.32,3.54-3.18,4.92-.86,1.38-1.51,2.54-1.95,3.48-.44,.94-.66,1.77-.66,2.49,0,.76,.26,1.29,.78,1.59,.52,.3,1.12,.45,1.8,.45,1.44,0,3.03-.55,4.77-1.65,1.74-1.1,3.47-2.45,5.19-4.05,1.72-1.6,3.36-3.3,4.92-5.1,1.56-1.8,2.88-3.42,3.96-4.86l.36,.24c-1.36,1.72-2.85,3.53-4.47,5.43-1.62,1.9-3.29,3.64-5.01,5.22-1.72,1.58-3.45,2.89-5.19,3.93-1.74,1.04-3.39,1.56-4.95,1.56-1.24,0-2.31-.38-3.21-1.14-.9-.76-1.35-1.82-1.35-3.18,0-.92,.26-1.95,.78-3.09,.52-1.14,1.2-2.37,2.04-3.69,.84-1.32,1.79-2.76,2.85-4.32,1.06-1.56,2.15-3.22,3.27-4.98h-3.24l.36-.72h3.36l4.68-6.96h3.6Z"/>
    <path d="M323.76,27.3c-2.2,3.16-4.06,5.82-5.58,7.98-1.52,2.16-2.75,3.96-3.69,5.4-.94,1.44-1.62,2.58-2.04,3.42-.42,.84-.63,1.52-.63,2.04,0,1.04,.42,1.56,1.26,1.56s1.73-.29,2.79-.87c1.06-.58,2.17-1.33,3.33-2.25,1.16-.92,2.32-1.96,3.48-3.12,1.16-1.16,2.25-2.31,3.27-3.45,1.02-1.14,1.92-2.24,2.7-3.3,.78-1.06,1.35-1.93,1.71-2.61l.48,.3c-.48,.8-1.13,1.76-1.95,2.88-.82,1.12-1.75,2.27-2.79,3.45-1.04,1.18-2.14,2.35-3.3,3.51-1.16,1.16-2.34,2.2-3.54,3.12-1.2,.92-2.37,1.66-3.51,2.22-1.14,.56-2.19,.84-3.15,.84-1.08,0-1.88-.3-2.4-.9-.52-.6-.78-1.26-.78-1.98,0-.84,.19-1.73,.57-2.67,.38-.94,.99-2.09,1.83-3.45,.84-1.36,1.93-3.01,3.27-4.95,1.34-1.94,2.95-4.33,4.83-7.17h3.84Zm3.48-11.16c.56,0,1.02,.19,1.38,.57,.36,.38,.54,.85,.54,1.41s-.18,1.03-.54,1.41c-.36,.38-.82,.57-1.38,.57s-1.02-.19-1.38-.57c-.36-.38-.54-.85-.54-1.41s.18-1.03,.54-1.41c.36-.38,.82-.57,1.38-.57Z"/>
    <path d="M357.29,32.76c-.96,1.08-2.04,1.94-3.24,2.58-1.2,.64-2.38,.96-3.54,.96s-2.08-.25-2.88-.75c-.8-.5-1.42-1.09-1.86-1.77h-.12c-.4,1.52-1.14,3.14-2.22,4.86-1.08,1.72-2.37,3.3-3.87,4.74s-3.15,2.64-4.95,3.6-3.64,1.44-5.52,1.44c-1.72,0-3.02-.5-3.9-1.5-.88-1-1.32-2.34-1.32-4.02,0-.88,.22-1.9,.66-3.06,.44-1.16,1.05-2.33,1.83-3.51,.78-1.18,1.7-2.34,2.76-3.48,1.06-1.14,2.21-2.16,3.45-3.06,1.24-.9,2.55-1.62,3.93-2.16,1.38-.54,2.77-.81,4.17-.81,1.64,0,2.91,.48,3.81,1.44s1.39,2.2,1.47,3.72c.08,.92,.51,1.77,1.29,2.55,.78,.78,1.85,1.17,3.21,1.17,1.2,0,2.33-.3,3.39-.9,1.06-.6,2.05-1.38,2.97-2.34l.48,.3Zm-30.18,11.58c0,1.04,.2,1.86,.6,2.46s1,.9,1.8,.9c1.08,0,2.15-.29,3.21-.87,1.06-.58,2.08-1.34,3.06-2.28,.98-.94,1.89-2.01,2.73-3.21,.84-1.2,1.57-2.44,2.19-3.72,.62-1.28,1.11-2.53,1.47-3.75,.36-1.22,.54-2.33,.54-3.33,0-.84-.21-1.55-.63-2.13-.42-.58-1.07-.87-1.95-.87s-1.74,.27-2.7,.81-1.93,1.25-2.91,2.13c-.98,.88-1.91,1.9-2.79,3.06-.88,1.16-1.67,2.36-2.37,3.6-.7,1.24-1.25,2.48-1.65,3.72-.4,1.24-.6,2.4-.6,3.48Z"/>
    <path d="M362.99,27.3l-7.92,10.98,.12,.12c.84-1,1.82-2.17,2.94-3.51,1.12-1.34,2.32-2.61,3.6-3.81,1.28-1.2,2.61-2.21,3.99-3.03,1.38-.82,2.75-1.23,4.11-1.23,1.2,0,2.13,.33,2.79,.99,.66,.66,.99,1.51,.99,2.55,0,.64-.23,1.4-.69,2.28-.46,.88-1.03,1.82-1.71,2.82-.68,1-1.42,2.02-2.22,3.06-.8,1.04-1.54,2.03-2.22,2.97-.68,.94-1.25,1.8-1.71,2.58-.46,.78-.69,1.43-.69,1.95,0,1.12,.56,1.68,1.68,1.68,1.28,0,2.64-.43,4.08-1.29,1.44-.86,3.16-2.31,5.16-4.35,.8-.8,1.61-1.68,2.43-2.64,.82-.96,1.61-1.91,2.37-2.85,.76-.94,1.45-1.83,2.07-2.67,.62-.84,1.11-1.54,1.47-2.1l.42,.24c-.8,1.2-1.83,2.63-3.09,4.29-1.26,1.66-2.63,3.29-4.11,4.89-.88,.96-1.78,1.88-2.7,2.76-.92,.88-1.84,1.65-2.76,2.31-.92,.66-1.83,1.18-2.73,1.56-.9,.38-1.79,.57-2.67,.57-1.16,0-2.12-.32-2.88-.96-.76-.64-1.14-1.52-1.14-2.64,0-1.2,.48-2.51,1.44-3.93,.96-1.42,2.02-2.85,3.18-4.29s2.22-2.82,3.18-4.14c.96-1.32,1.44-2.48,1.44-3.48,0-.48-.16-.84-.48-1.08-.32-.24-.74-.36-1.26-.36-1,0-2.12,.37-3.36,1.11-1.24,.74-2.51,1.72-3.81,2.94-1.3,1.22-2.6,2.58-3.9,4.08-1.3,1.5-2.51,3-3.63,4.5-1.12,1.5-2.12,2.94-3,4.32-.88,1.38-1.54,2.53-1.98,3.45h-3.72c1.04-1.76,2.15-3.55,3.33-5.37,1.18-1.82,2.35-3.62,3.51-5.4,1.16-1.78,2.27-3.5,3.33-5.16,1.06-1.66,2.01-3.17,2.85-4.53l3.9-.18Z"/>
  </g>
  <g>
    <path class="cls-1" d="M3.48,32.52c.92,0,1.61,.21,2.07,.63,.46,.42,.69,.97,.69,1.65,0,.6-.18,1.11-.54,1.53-.36,.42-.84,.63-1.44,.63-.2,0-.43-.05-.69-.15-.26-.1-.45-.25-.57-.45-.44,.48-.73,1.06-.87,1.74-.14,.68-.21,1.4-.21,2.16,0,1.04,.25,2.04,.75,3,.5,.96,1.22,1.8,2.16,2.52,.94,.72,2.07,1.3,3.39,1.74,1.32,.44,2.78,.66,4.38,.66,2.72,0,5.02-.62,6.9-1.86,1.88-1.24,3.4-2.83,4.56-4.77,1.16-1.94,2-4.09,2.52-6.45,.52-2.36,.8-4.64,.84-6.84,.04-3.56,.39-6.76,1.05-9.6,.66-2.84,1.6-5.25,2.82-7.23,1.22-1.98,2.74-3.51,4.56-4.59,1.82-1.08,3.91-1.62,6.27-1.62,2.12,0,3.84,.51,5.16,1.53,1.32,1.02,1.98,2.35,1.98,3.99,0,1.28-.45,2.24-1.35,2.88-.9,.64-1.97,.96-3.21,.96,.44-.68,.77-1.34,.99-1.98,.22-.64,.33-1.44,.33-2.4,0-1.44-.42-2.51-1.26-3.21-.84-.7-1.84-1.05-3-1.05-1.56,0-2.89,.31-3.99,.93-1.1,.62-2.03,1.47-2.79,2.55-.76,1.08-1.37,2.34-1.83,3.78-.46,1.44-.83,2.97-1.11,4.59-.28,1.62-.49,3.29-.63,5.01-.14,1.72-.27,3.42-.39,5.1-.28,4.12-1.01,7.53-2.19,10.23-1.18,2.7-2.63,4.85-4.35,6.45-1.72,1.6-3.64,2.72-5.76,3.36-2.12,.64-4.3,.96-6.54,.96-1.8,0-3.45-.29-4.95-.87-1.5-.58-2.79-1.38-3.87-2.4-1.08-1.02-1.91-2.23-2.49-3.63-.58-1.4-.87-2.94-.87-4.62,0-1.4,.32-2.56,.96-3.48,.64-.92,1.48-1.38,2.52-1.38Z"/>
    <path class="cls-1" d="M77.28,5.52c-2.16,1.68-3.98,3.59-5.46,5.73-1.48,2.14-2.77,4.39-3.87,6.75-1.1,2.36-2.09,4.8-2.97,7.32-.88,2.52-1.81,5-2.79,7.44-.98,2.44-2.09,4.81-3.33,7.11-1.24,2.3-2.78,4.43-4.62,6.39l.12,.12c2.36-1.4,4.59-2.75,6.69-4.05,2.1-1.3,4.11-2.57,6.03-3.81,5.04-3.24,9.02-6.34,11.94-9.3,2.92-2.96,5.12-5.67,6.6-8.13,1.48-2.46,2.42-4.61,2.82-6.45,.4-1.84,.6-3.22,.6-4.14-.52-.16-.87-.42-1.05-.78-.18-.36-.27-.8-.27-1.32,0-.68,.22-1.24,.66-1.68,.44-.44,1-.66,1.68-.66,1.04,0,1.75,.35,2.13,1.05,.38,.7,.57,1.63,.57,2.79,0,1.56-.37,3.21-1.11,4.95-.74,1.74-1.76,3.5-3.06,5.28-1.3,1.78-2.81,3.57-4.53,5.37-1.72,1.8-3.55,3.54-5.49,5.22-1.94,1.68-3.96,3.28-6.06,4.8-2.1,1.52-4.15,2.9-6.15,4.14-2.36,1.44-4.72,2.88-7.08,4.32-2.36,1.44-4.82,2.92-7.38,4.44l-.3-.3c1.4-2.04,2.61-4.23,3.63-6.57,1.02-2.34,1.97-4.75,2.85-7.23,.88-2.48,1.77-4.96,2.67-7.44,.9-2.48,1.93-4.87,3.09-7.17,1.16-2.3,2.54-4.45,4.14-6.45,1.6-2,3.54-3.74,5.82-5.22l-.12-.12c-1.68,.88-3.5,1.55-5.46,2.01-1.96,.46-3.96,.97-6,1.53-1.32,.36-2.75,.84-4.29,1.44-1.54,.6-2.97,1.37-4.29,2.31-1.32,.94-2.43,2.04-3.33,3.3-.9,1.26-1.35,2.73-1.35,4.41,0,1.4,.44,2.48,1.32,3.24,.88,.76,1.92,1.14,3.12,1.14,.72,0,1.43-.15,2.13-.45,.7-.3,1.32-.7,1.86-1.2,.54-.5,.97-1.11,1.29-1.83,.32-.72,.48-1.5,.48-2.34v-1.08c0-.32-.04-.66-.12-1.02h.66c.04,.32,.08,.66,.12,1.02,.04,.36,.06,.76,.06,1.2,0,.84-.17,1.64-.51,2.4-.34,.76-.81,1.44-1.41,2.04s-1.31,1.08-2.13,1.44c-.82,.36-1.69,.54-2.61,.54-1.68,0-3.09-.49-4.23-1.47-1.14-.98-1.71-2.33-1.71-4.05,0-1.88,.49-3.47,1.47-4.77,.98-1.3,2.19-2.4,3.63-3.3,1.44-.9,2.98-1.63,4.62-2.19,1.64-.56,3.12-1.02,4.44-1.38,1.04-.32,2.25-.63,3.63-.93,1.38-.3,2.77-.65,4.17-1.05,1.4-.4,2.77-.89,4.11-1.47,1.34-.58,2.51-1.31,3.51-2.19l.42,.3Z"/>
    <path class="cls-1" d="M105.84,.36c-.92,.8-1.62,1.75-2.1,2.85-.48,1.1-.72,2.15-.72,3.15,0,.84,.12,1.66,.36,2.46,.24,.8,.56,1.44,.96,1.92,2.6-1.6,5.38-2.92,8.34-3.96,2.96-1.04,6-1.56,9.12-1.56,.72,0,1.47,.06,2.25,.18,.78,.12,1.49,.33,2.13,.63,.64,.3,1.17,.73,1.59,1.29,.42,.56,.63,1.26,.63,2.1,0,1.32-.38,2.43-1.14,3.33-.76,.9-1.74,1.63-2.94,2.19-1.2,.56-2.54,.96-4.02,1.2-1.48,.24-2.94,.36-4.38,.36-1.84,0-3.76-.27-5.76-.81-2-.54-3.76-1.57-5.28-3.09-1.16,.8-2.35,1.87-3.57,3.21-1.22,1.34-2.34,2.79-3.36,4.35-1.02,1.56-1.86,3.16-2.52,4.8-.66,1.64-.99,3.16-.99,4.56,0,.84,.07,1.63,.21,2.37,.14,.74,.4,1.38,.78,1.92,.38,.54,.89,.97,1.53,1.29,.64,.32,1.44,.48,2.4,.48,1.12,0,2.26-.22,3.42-.66,1.16-.44,2.24-.97,3.24-1.59,1-.62,1.86-1.25,2.58-1.89,.72-.64,1.16-1.16,1.32-1.56,.4-.84,.77-1.62,1.11-2.34,.34-.72,.73-1.35,1.17-1.89,.44-.54,.97-.97,1.59-1.29,.62-.32,1.39-.48,2.31-.48,.24,0,.47,.06,.69,.18,.22,.12,.33,.36,.33,.72,0,.44-.4,1.12-1.2,2.04-.8,.92-1.62,1.92-2.46,3-1.24,2.2-2.65,4.44-4.23,6.72-1.58,2.28-3.35,4.33-5.31,6.15-1.96,1.82-4.14,3.31-6.54,4.47s-5.02,1.74-7.86,1.74c-1.36,0-2.63-.19-3.81-.57-1.18-.38-2.21-.92-3.09-1.62-.88-.7-1.57-1.54-2.07-2.52-.5-.98-.75-2.05-.75-3.21,0-1.04,.25-1.96,.75-2.76,.5-.8,1.31-1.2,2.43-1.2,.56,0,1.05,.21,1.47,.63s.63,.91,.63,1.47c0,.64-.19,1.16-.57,1.56-.38,.4-.89,.58-1.53,.54-.12,0-.29,0-.51-.03-.22-.02-.39-.07-.51-.15-.08,.28-.12,.54-.12,.78v.6c0,.88,.22,1.68,.66,2.4,.44,.72,1.02,1.33,1.74,1.83,.72,.5,1.55,.88,2.49,1.14,.94,.26,1.93,.39,2.97,.39,2.16,0,4.15-.52,5.97-1.56,1.82-1.04,3.49-2.34,5.01-3.9,1.52-1.56,2.91-3.25,4.17-5.07,1.26-1.82,2.39-3.51,3.39-5.07l-.12-.12c-1.4,1.16-2.98,2.13-4.74,2.91-1.76,.78-3.6,1.17-5.52,1.17-2.24,0-4.01-.66-5.31-1.98-1.3-1.32-1.95-3.1-1.95-5.34,0-1.76,.43-3.52,1.29-5.28,.86-1.76,1.94-3.43,3.24-5.01,1.3-1.58,2.73-3.04,4.29-4.38,1.56-1.34,3.02-2.45,4.38-3.33-1-1.44-1.5-3.02-1.5-4.74,0-1.32,.31-2.54,.93-3.66,.62-1.12,1.37-2.06,2.25-2.82l.36,.36Zm20.16,8.52c0-.72-.17-1.27-.51-1.65-.34-.38-.78-.67-1.32-.87-.54-.2-1.11-.32-1.71-.36-.6-.04-1.18-.06-1.74-.06-1.32,0-2.67,.18-4.05,.54-1.38,.36-2.74,.82-4.08,1.38-1.34,.56-2.63,1.21-3.87,1.95-1.24,.74-2.36,1.51-3.36,2.31,1,1.16,2.43,2.06,4.29,2.7,1.86,.64,3.97,.96,6.33,.96,1.28,0,2.52-.15,3.72-.45,1.2-.3,2.26-.74,3.18-1.32,.92-.58,1.67-1.3,2.25-2.16,.58-.86,.87-1.85,.87-2.97Z"/>
    <path class="cls-1" d="M165.72,29.28c-1.96,2.48-3.98,4.87-6.06,7.17-2.08,2.3-4.17,4.34-6.27,6.12-2.1,1.78-4.19,3.2-6.27,4.26-2.08,1.06-4.08,1.59-6,1.59-1.32,0-2.37-.15-3.15-.45-.78-.3-1.38-.66-1.8-1.08-.42-.42-.7-.86-.84-1.32-.14-.46-.21-.87-.21-1.23,0-.68,.2-1.26,.6-1.74,.4-.48,.96-.72,1.68-.72,.64,0,1.14,.22,1.5,.66,.36,.44,.54,.96,.54,1.56,0,.36-.1,.72-.3,1.08-.2,.36-.48,.58-.84,.66,.36,.56,.86,.93,1.5,1.11,.64,.18,1.3,.27,1.98,.27,1.72,0,3.53-.5,5.43-1.5,1.9-1,3.82-2.31,5.76-3.93,1.94-1.62,3.87-3.46,5.79-5.52,1.92-2.06,3.76-4.17,5.52-6.33,.76-.96,1.71-2.14,2.85-3.54,1.14-1.4,2.43-2.92,3.87-4.56,1.44-1.64,3.01-3.31,4.71-5.01,1.7-1.7,3.51-3.31,5.43-4.83,1.92-1.52,3.92-2.88,6-4.08,2.08-1.2,4.2-2.1,6.36-2.7l.18,.24c-1.36,1.24-2.78,2.78-4.26,4.62-1.48,1.84-2.93,3.83-4.35,5.97-1.42,2.14-2.77,4.39-4.05,6.75-1.28,2.36-2.41,4.71-3.39,7.05-.98,2.34-1.76,4.59-2.34,6.75-.58,2.16-.87,4.14-.87,5.94,0,1.24,.21,2.29,.63,3.15,.42,.86,1.27,1.29,2.55,1.29,.76,0,1.63-.28,2.61-.84,.98-.56,2.01-1.3,3.09-2.22,1.08-.92,2.15-1.94,3.21-3.06,1.06-1.12,2.07-2.23,3.03-3.33,.96-1.1,1.82-2.14,2.58-3.12,.76-.98,1.36-1.77,1.8-2.37l.42,.18c-1.36,1.72-2.8,3.54-4.32,5.46-1.52,1.92-3.06,3.67-4.62,5.25-1.56,1.58-3.13,2.89-4.71,3.93-1.58,1.04-3.09,1.56-4.53,1.56-.96,0-1.77-.17-2.43-.51s-1.21-.81-1.65-1.41-.76-1.28-.96-2.04c-.2-.76-.3-1.56-.3-2.4,0-2.28,.32-4.47,.96-6.57,.64-2.1,1.36-4.17,2.16-6.21h-8.22Zm8.52-.72c1.8-3.72,3.93-7.36,6.39-10.92,2.46-3.56,5.37-6.94,8.73-10.14l-.12-.12c-2.12,1.04-4.19,2.32-6.21,3.84-2.02,1.52-3.99,3.2-5.91,5.04-1.92,1.84-3.79,3.8-5.61,5.88-1.82,2.08-3.59,4.22-5.31,6.42h8.04Z"/>
    <path class="cls-1" d="M199.74,27.3l-7.92,10.98,.12,.12c.84-1,1.82-2.17,2.94-3.51,1.12-1.34,2.32-2.61,3.6-3.81,1.28-1.2,2.61-2.21,3.99-3.03,1.38-.82,2.75-1.23,4.11-1.23,1.2,0,2.13,.33,2.79,.99,.66,.66,.99,1.51,.99,2.55,0,.64-.23,1.4-.69,2.28-.46,.88-1.03,1.82-1.71,2.82-.68,1-1.42,2.02-2.22,3.06-.8,1.04-1.54,2.03-2.22,2.97-.68,.94-1.25,1.8-1.71,2.58-.46,.78-.69,1.43-.69,1.95,0,1.12,.56,1.68,1.68,1.68,1.28,0,2.64-.43,4.08-1.29,1.44-.86,3.16-2.31,5.16-4.35,.8-.8,1.61-1.68,2.43-2.64,.82-.96,1.61-1.91,2.37-2.85,.76-.94,1.45-1.83,2.07-2.67,.62-.84,1.11-1.54,1.47-2.1l.42,.24c-.8,1.2-1.83,2.63-3.09,4.29-1.26,1.66-2.63,3.29-4.11,4.89-.88,.96-1.78,1.88-2.7,2.76-.92,.88-1.84,1.65-2.76,2.31-.92,.66-1.83,1.18-2.73,1.56-.9,.38-1.79,.57-2.67,.57-1.16,0-2.12-.32-2.88-.96-.76-.64-1.14-1.52-1.14-2.64,0-1.2,.48-2.51,1.44-3.93,.96-1.42,2.02-2.85,3.18-4.29s2.22-2.82,3.18-4.14c.96-1.32,1.44-2.48,1.44-3.48,0-.48-.16-.84-.48-1.08-.32-.24-.74-.36-1.26-.36-1,0-2.12,.37-3.36,1.11-1.24,.74-2.51,1.72-3.81,2.94-1.3,1.22-2.6,2.58-3.9,4.08-1.3,1.5-2.51,3-3.63,4.5-1.12,1.5-2.12,2.94-3,4.32-.88,1.38-1.54,2.53-1.98,3.45h-3.72c1.04-1.76,2.15-3.55,3.33-5.37,1.18-1.82,2.35-3.62,3.51-5.4,1.16-1.78,2.27-3.5,3.33-5.16,1.06-1.66,2.01-3.17,2.85-4.53l3.9-.18Z"/>
    <path class="cls-1" d="M227.1,27.3c-2.2,3.16-4.06,5.82-5.58,7.98-1.52,2.16-2.75,3.96-3.69,5.4-.94,1.44-1.62,2.58-2.04,3.42-.42,.84-.63,1.52-.63,2.04,0,1.04,.42,1.56,1.26,1.56s1.73-.29,2.79-.87c1.06-.58,2.17-1.33,3.33-2.25,1.16-.92,2.32-1.96,3.48-3.12,1.16-1.16,2.25-2.31,3.27-3.45,1.02-1.14,1.92-2.24,2.7-3.3,.78-1.06,1.35-1.93,1.71-2.61l.48,.3c-.48,.8-1.13,1.76-1.95,2.88-.82,1.12-1.75,2.27-2.79,3.45-1.04,1.18-2.14,2.35-3.3,3.51-1.16,1.16-2.34,2.2-3.54,3.12-1.2,.92-2.37,1.66-3.51,2.22-1.14,.56-2.19,.84-3.15,.84-1.08,0-1.88-.3-2.4-.9-.52-.6-.78-1.26-.78-1.98,0-.84,.19-1.73,.57-2.67,.38-.94,.99-2.09,1.83-3.45,.84-1.36,1.93-3.01,3.27-4.95,1.34-1.94,2.95-4.33,4.83-7.17h3.84Zm3.48-11.16c.56,0,1.02,.19,1.38,.57,.36,.38,.54,.85,.54,1.41s-.18,1.03-.54,1.41c-.36,.38-.82,.57-1.38,.57s-1.02-.19-1.38-.57c-.36-.38-.54-.85-.54-1.41s.18-1.03,.54-1.41c.36-.38,.82-.57,1.38-.57Z"/>
    <path class="cls-1" d="M223.02,47.94c.88-1.48,1.89-3.1,3.03-4.86,1.14-1.76,2.3-3.55,3.48-5.37,1.18-1.82,2.34-3.62,3.48-5.4,1.14-1.78,2.17-3.45,3.09-5.01h3.66l-7.92,11.16,.12,.12c.76-.92,1.68-2.05,2.76-3.39,1.08-1.34,2.27-2.63,3.57-3.87,1.3-1.24,2.69-2.3,4.17-3.18,1.48-.88,3-1.32,4.56-1.32,.96,0,1.75,.25,2.37,.75,.62,.5,.93,1.23,.93,2.19,0,.56-.2,1.24-.6,2.04-.4,.8-.87,1.61-1.41,2.43-.54,.82-1.09,1.61-1.65,2.37-.56,.76-1,1.38-1.32,1.86l.12,.12c.84-1.2,1.85-2.48,3.03-3.84,1.18-1.36,2.44-2.63,3.78-3.81,1.34-1.18,2.72-2.16,4.14-2.94,1.42-.78,2.79-1.17,4.11-1.17,1.16,0,2.03,.28,2.61,.84,.58,.56,.87,1.34,.87,2.34,0,.68-.23,1.48-.69,2.4-.46,.92-1.04,1.89-1.74,2.91-.7,1.02-1.45,2.05-2.25,3.09-.8,1.04-1.55,2.04-2.25,3-.7,.96-1.28,1.85-1.74,2.67-.46,.82-.69,1.51-.69,2.07,0,.48,.15,.86,.45,1.14,.3,.28,.67,.42,1.11,.42,.96,0,2.09-.38,3.39-1.14,1.3-.76,2.7-1.82,4.2-3.18,1.5-1.36,3.07-2.99,4.71-4.89,1.64-1.9,3.3-3.99,4.98-6.27l.48,.24c-1.64,2.24-3.28,4.33-4.92,6.27-1.64,1.94-3.23,3.63-4.77,5.07s-3.02,2.57-4.44,3.39c-1.42,.82-2.73,1.23-3.93,1.23s-2.16-.35-2.76-1.05c-.6-.7-.9-1.57-.9-2.61,0-.76,.23-1.61,.69-2.55,.46-.94,1.04-1.91,1.74-2.91,.7-1,1.45-2,2.25-3,.8-1,1.55-1.96,2.25-2.88,.7-.92,1.28-1.76,1.74-2.52,.46-.76,.69-1.38,.69-1.86,0-.56-.15-.95-.45-1.17-.3-.22-.67-.33-1.11-.33-.8,0-1.74,.27-2.82,.81s-2.21,1.3-3.39,2.28c-1.18,.98-2.39,2.12-3.63,3.42-1.24,1.3-2.45,2.7-3.63,4.2-1.18,1.5-2.29,3.08-3.33,4.74-1.04,1.66-1.94,3.31-2.7,4.95h-3.84c1.12-2,2.33-4,3.63-6,1.3-2,2.51-3.85,3.63-5.55,1.12-1.7,2.06-3.18,2.82-4.44,.76-1.26,1.14-2.19,1.14-2.79,0-1.08-.56-1.62-1.68-1.62-1,0-2.12,.37-3.36,1.11-1.24,.74-2.5,1.7-3.78,2.88-1.28,1.18-2.54,2.52-3.78,4.02-1.24,1.5-2.41,3.01-3.51,4.53-1.1,1.52-2.07,2.97-2.91,4.35-.84,1.38-1.5,2.55-1.98,3.51h-3.9Z"/>
    <path class="cls-1" d="M289.74,27.3h3.9c-1.48,2.08-2.9,4.1-4.26,6.06-1.36,1.96-2.57,3.77-3.63,5.43-1.06,1.66-1.91,3.12-2.55,4.38-.64,1.26-.96,2.25-.96,2.97,0,1.04,.54,1.56,1.62,1.56,.84,0,1.91-.41,3.21-1.23,1.3-.82,2.71-1.95,4.23-3.39,1.52-1.44,3.08-3.12,4.68-5.04,1.6-1.92,3.12-3.96,4.56-6.12l.36,.12c-1.08,1.64-2.35,3.41-3.81,5.31-1.46,1.9-2.99,3.67-4.59,5.31-1.6,1.64-3.2,3.01-4.8,4.11-1.6,1.1-3.1,1.65-4.5,1.65-1.16,0-2.01-.29-2.55-.87-.54-.58-.81-1.27-.81-2.07,0-.56,.09-1.11,.27-1.65s.37-1.09,.57-1.65l-.12-.06c-.52,.56-1.17,1.21-1.95,1.95-.78,.74-1.62,1.43-2.52,2.07-.9,.64-1.83,1.18-2.79,1.62-.96,.44-1.88,.66-2.76,.66-1.48,0-2.52-.46-3.12-1.38-.6-.92-.9-1.96-.9-3.12,0-1.64,.52-3.45,1.56-5.43s2.36-3.84,3.96-5.58c1.6-1.74,3.34-3.19,5.22-4.35,1.88-1.16,3.66-1.74,5.34-1.74,.8,0,1.5,.11,2.1,.33,.6,.22,1.1,.52,1.5,.9,.4,.38,.71,.81,.93,1.29,.22,.48,.39,.98,.51,1.5h.12l1.98-3.54Zm-19.62,16.8c0,.92,.19,1.63,.57,2.13,.38,.5,.91,.75,1.59,.75s1.48-.25,2.4-.75c.92-.5,1.88-1.17,2.88-2.01,1-.84,1.99-1.81,2.97-2.91,.98-1.1,1.85-2.27,2.61-3.51,.76-1.24,1.38-2.5,1.86-3.78,.48-1.28,.72-2.5,.72-3.66,0-.92-.26-1.62-.78-2.1-.52-.48-1.16-.72-1.92-.72-1.2,0-2.54,.52-4.02,1.56-1.48,1.04-2.88,2.37-4.2,3.99-1.32,1.62-2.43,3.41-3.33,5.37-.9,1.96-1.35,3.84-1.35,5.64Z"/>
    <path class="cls-1" d="M310.91,20.34l-4.74,6.96h7.92l-.36,.72h-8.04c-1.6,2.6-3.03,4.85-4.29,6.75-1.26,1.9-2.32,3.54-3.18,4.92-.86,1.38-1.51,2.54-1.95,3.48-.44,.94-.66,1.77-.66,2.49,0,.76,.26,1.29,.78,1.59,.52,.3,1.12,.45,1.8,.45,1.44,0,3.03-.55,4.77-1.65,1.74-1.1,3.47-2.45,5.19-4.05,1.72-1.6,3.36-3.3,4.92-5.1,1.56-1.8,2.88-3.42,3.96-4.86l.36,.24c-1.36,1.72-2.85,3.53-4.47,5.43-1.62,1.9-3.29,3.64-5.01,5.22-1.72,1.58-3.45,2.89-5.19,3.93-1.74,1.04-3.39,1.56-4.95,1.56-1.24,0-2.31-.38-3.21-1.14-.9-.76-1.35-1.82-1.35-3.18,0-.92,.26-1.95,.78-3.09,.52-1.14,1.2-2.37,2.04-3.69,.84-1.32,1.79-2.76,2.85-4.32,1.06-1.56,2.15-3.22,3.27-4.98h-3.24l.36-.72h3.36l4.68-6.96h3.6Z"/>
    <path class="cls-1" d="M323.76,27.3c-2.2,3.16-4.06,5.82-5.58,7.98-1.52,2.16-2.75,3.96-3.69,5.4-.94,1.44-1.62,2.58-2.04,3.42-.42,.84-.63,1.52-.63,2.04,0,1.04,.42,1.56,1.26,1.56s1.73-.29,2.79-.87c1.06-.58,2.17-1.33,3.33-2.25,1.16-.92,2.32-1.96,3.48-3.12,1.16-1.16,2.25-2.31,3.27-3.45,1.02-1.14,1.92-2.24,2.7-3.3,.78-1.06,1.35-1.93,1.71-2.61l.48,.3c-.48,.8-1.13,1.76-1.95,2.88-.82,1.12-1.75,2.27-2.79,3.45-1.04,1.18-2.14,2.35-3.3,3.51-1.16,1.16-2.34,2.2-3.54,3.12-1.2,.92-2.37,1.66-3.51,2.22-1.14,.56-2.19,.84-3.15,.84-1.08,0-1.88-.3-2.4-.9-.52-.6-.78-1.26-.78-1.98,0-.84,.19-1.73,.57-2.67,.38-.94,.99-2.09,1.83-3.45,.84-1.36,1.93-3.01,3.27-4.95,1.34-1.94,2.95-4.33,4.83-7.17h3.84Zm3.48-11.16c.56,0,1.02,.19,1.38,.57,.36,.38,.54,.85,.54,1.41s-.18,1.03-.54,1.41c-.36,.38-.82,.57-1.38,.57s-1.02-.19-1.38-.57c-.36-.38-.54-.85-.54-1.41s.18-1.03,.54-1.41c.36-.38,.82-.57,1.38-.57Z"/>
    <path class="cls-1" d="M357.29,32.76c-.96,1.08-2.04,1.94-3.24,2.58-1.2,.64-2.38,.96-3.54,.96s-2.08-.25-2.88-.75c-.8-.5-1.42-1.09-1.86-1.77h-.12c-.4,1.52-1.14,3.14-2.22,4.86-1.08,1.72-2.37,3.3-3.87,4.74s-3.15,2.64-4.95,3.6-3.64,1.44-5.52,1.44c-1.72,0-3.02-.5-3.9-1.5-.88-1-1.32-2.34-1.32-4.02,0-.88,.22-1.9,.66-3.06,.44-1.16,1.05-2.33,1.83-3.51,.78-1.18,1.7-2.34,2.76-3.48,1.06-1.14,2.21-2.16,3.45-3.06,1.24-.9,2.55-1.62,3.93-2.16,1.38-.54,2.77-.81,4.17-.81,1.64,0,2.91,.48,3.81,1.44s1.39,2.2,1.47,3.72c.08,.92,.51,1.77,1.29,2.55,.78,.78,1.85,1.17,3.21,1.17,1.2,0,2.33-.3,3.39-.9,1.06-.6,2.05-1.38,2.97-2.34l.48,.3Zm-30.18,11.58c0,1.04,.2,1.86,.6,2.46s1,.9,1.8,.9c1.08,0,2.15-.29,3.21-.87,1.06-.58,2.08-1.34,3.06-2.28,.98-.94,1.89-2.01,2.73-3.21,.84-1.2,1.57-2.44,2.19-3.72,.62-1.28,1.11-2.53,1.47-3.75,.36-1.22,.54-2.33,.54-3.33,0-.84-.21-1.55-.63-2.13-.42-.58-1.07-.87-1.95-.87s-1.74,.27-2.7,.81-1.93,1.25-2.91,2.13c-.98,.88-1.91,1.9-2.79,3.06-.88,1.16-1.67,2.36-2.37,3.6-.7,1.24-1.25,2.48-1.65,3.72-.4,1.24-.6,2.4-.6,3.48Z"/>
    <path class="cls-1" d="M362.99,27.3l-7.92,10.98,.12,.12c.84-1,1.82-2.17,2.94-3.51,1.12-1.34,2.32-2.61,3.6-3.81,1.28-1.2,2.61-2.21,3.99-3.03,1.38-.82,2.75-1.23,4.11-1.23,1.2,0,2.13,.33,2.79,.99,.66,.66,.99,1.51,.99,2.55,0,.64-.23,1.4-.69,2.28-.46,.88-1.03,1.82-1.71,2.82-.68,1-1.42,2.02-2.22,3.06-.8,1.04-1.54,2.03-2.22,2.97-.68,.94-1.25,1.8-1.71,2.58-.46,.78-.69,1.43-.69,1.95,0,1.12,.56,1.68,1.68,1.68,1.28,0,2.64-.43,4.08-1.29,1.44-.86,3.16-2.31,5.16-4.35,.8-.8,1.61-1.68,2.43-2.64,.82-.96,1.61-1.91,2.37-2.85,.76-.94,1.45-1.83,2.07-2.67,.62-.84,1.11-1.54,1.47-2.1l.42,.24c-.8,1.2-1.83,2.63-3.09,4.29-1.26,1.66-2.63,3.29-4.11,4.89-.88,.96-1.78,1.88-2.7,2.76-.92,.88-1.84,1.65-2.76,2.31-.92,.66-1.83,1.18-2.73,1.56-.9,.38-1.79,.57-2.67,.57-1.16,0-2.12-.32-2.88-.96-.76-.64-1.14-1.52-1.14-2.64,0-1.2,.48-2.51,1.44-3.93,.96-1.42,2.02-2.85,3.18-4.29s2.22-2.82,3.18-4.14c.96-1.32,1.44-2.48,1.44-3.48,0-.48-.16-.84-.48-1.08-.32-.24-.74-.36-1.26-.36-1,0-2.12,.37-3.36,1.11-1.24,.74-2.51,1.72-3.81,2.94-1.3,1.22-2.6,2.58-3.9,4.08-1.3,1.5-2.51,3-3.63,4.5-1.12,1.5-2.12,2.94-3,4.32-.88,1.38-1.54,2.53-1.98,3.45h-3.72c1.04-1.76,2.15-3.55,3.33-5.37,1.18-1.82,2.35-3.62,3.51-5.4,1.16-1.78,2.27-3.5,3.33-5.16,1.06-1.66,2.01-3.17,2.85-4.53l3.9-.18Z"/>
  </g>
</svg>